<svg width="1440" height="586" viewBox="0 0 1440 586" fill="none" xmlns="http://www.w3.org/2000/svg">
<path fill-rule="evenodd" clip-rule="evenodd" d="M1275.06 16.8327C1125.94 33.9541 936.337 55.7242 802.332 188.288C716.638 273.061 687.278 352.347 662.28 419.851C656.347 435.872 650.66 451.229 644.524 465.838C581.384 494.276 520.58 506.008 487.843 507.044C353.134 511.305 264.861 470.132 157.462 381.106C64.3529 303.925 18.7713 145.147 0 58.3273V364.931C11.3485 384.356 24.0049 404.392 38.0672 425.266C110.126 532.228 307.383 585.388 448.112 585.409C448.169 585.409 448.226 585.409 448.283 585.409C511.904 585.399 563.95 574.522 587.612 552.839C614.329 528.356 630.585 499.027 644.524 465.838C701.534 440.162 760.449 400.868 802.332 343.534C868.144 253.444 1107.53 77.5246 1303.8 98.7867C1372.09 106.185 1414.42 115.577 1440 123.739V0.442131C1407.82 2.19926 1368.94 5.19347 1333.42 9.83673C1314.88 12.2608 1295.34 14.5037 1275.06 16.8327Z" fill="url(#paint0_linear_46_166)"/>
<defs>
<linearGradient id="paint0_linear_46_166" x1="1447.91" y1="53.9967" x2="-6.0926" y2="521.764" gradientUnits="userSpaceOnUse">
<stop stop-color="#F6D000"/>
<stop offset="0.53125" stop-color="#FD4AD5"/>
<stop offset="1" stop-color="#FFD800"/>
</linearGradient>
</defs>
</svg>
