<svg width="405" height="474" viewBox="0 0 405 474" fill="none" xmlns="http://www.w3.org/2000/svg">
<path fill-rule="evenodd" clip-rule="evenodd" d="M405 344.776V473.873C385.895 454.05 358.158 428.387 332.462 416.219C284.648 393.578 242 405.921 199.875 418.112C156.11 430.778 112.911 443.28 65.0718 416.219C44.2299 404.429 25.6548 387.897 11.2557 368.764C-6.94867 344.576 -0.814246 311.409 14.5145 275.453C19.3647 290.716 27.4703 305.219 39.4317 318.542C88.2107 372.875 151.34 355.958 217.814 338.144C273.754 323.154 332.063 307.528 386.184 333.194C392.726 336.296 399.015 340.253 405 344.776ZM405 82.8536C358.516 81.1658 255.124 81.2826 193.272 110.979C180.042 117.331 167.967 122.73 156.831 127.709C104.421 151.142 72.8075 165.276 39.4317 225.749C30.1835 242.506 21.4169 259.262 14.5145 275.453C3.50696 240.813 9.26739 202.259 24.7801 164.701C47.9784 108.537 141.557 77.3487 242.111 46.2684C290.648 31.266 366.613 10.5229 405 0.175298V82.8536Z" fill="url(#paint0_linear_47_168)"/>
<defs>
<linearGradient id="paint0_linear_47_168" x1="448.926" y1="91.737" x2="80.959" y2="10.7401" gradientUnits="userSpaceOnUse">
<stop offset="0.234375" stop-color="#F6D000"/>
<stop offset="1" stop-color="#FD4AD5"/>
</linearGradient>
</defs>
</svg>
