<svg id="デフォルト" xmlns="http://www.w3.org/2000/svg" viewBox="0 0 1024 1024">
  <g>
    <rect id="背景" x="-1" width="1024" height="1024" style="fill: #030300"/>
    <path id="左の_" data-name="左の[" d="M101.9,452.29q0-104,0-208c0-31.34,14.53-46,45.57-46.06,102.89-.1,205.79.2,308.68-.33,13.74-.08,17.34,3,18.25,17.76a229.65,229.65,0,0,1,0,32.35c-1.27,14.25-4.82,17-17.56,16.89-90.39-.42-180.77.06-271.15-.52-14-.08-18.29,3.61-18.21,18q.85,171.38,0,342.77c-.06,14.36,4.47,18.36,18.47,18.28,89.81-.53,179.63,0,269.44-.57,14.54-.1,18.07,3.11,19,18.8a267.83,267.83,0,0,1-.05,30.64c-.73,13.63-3.83,17.57-17.26,17.44-63.66-.6-127.33-.26-191-.26q-55.42,0-110.85,0c-40.69,0-53.36-12.49-53.38-52.47Q101.87,554.61,101.9,452.29Z" style="fill: #f6d000"/>
    <path id="下の棒" d="M475.37,743.84c134.14,0,268.29.28,402.43-.37,16.48-.08,21.06,4.54,20.44,20.89-.1,2.65-.06,6.81-.08,10.22-.26,29.31-14.71,44.12-43.76,44.19-54.57.15-109.13.06-163.7.06q-295.86,0-591.71,0c-40.27,0-51-25.82-49.54-67.6.17-4.67,3.62-7,8.15-7.13,5.11-.2,10.23-.24,15.34-.24Z" style="fill: #f6d000"/>
    <g id="_0101" data-name="0101">
      <g>
        <path d="M745.31,657.87c0-6.22-.4-12.47.07-18.65,1.49-19.59,15-33,33.68-33.62,19.45-.69,34.8,12.4,36.48,32.45a286.54,286.54,0,0,1,.2,37.3c-1,21.33-15.43,35.3-35.51,35.21s-33.93-14.24-35-35.73c-.26-5.64,0-11.31,0-17Zm20-.31h-.12c0,5.65,0,11.3,0,17,0,10.21,5.12,16.43,15.18,16.49s15.38-6.11,15.43-16.29c.06-11.86.43-23.74-.23-35.57-.52-9.34-7-14.53-15.82-14.14-7.87.34-13.79,5.18-14.35,13.93C765,645.12,765.35,651.35,765.35,657.56Z" style="fill: #ffd800"/>
        <path d="M831.31,657.87c0-6.22-.4-12.47.07-18.65,1.49-19.59,15-33,33.68-33.62,19.45-.69,34.8,12.4,36.48,32.45a286.54,286.54,0,0,1,.2,37.3c-1,21.33-15.43,35.3-35.51,35.21s-33.93-14.24-35-35.73c-.26-5.64,0-11.31,0-17Zm20-.31h-.12c0,5.65,0,11.3,0,17,0,10.21,5.12,16.43,15.18,16.49s15.38-6.11,15.43-16.29c.06-11.86.43-23.74-.23-35.57-.52-9.34-7-14.53-15.82-14.14-7.87.34-13.79,5.18-14.35,13.93C851,645.12,851.35,651.35,851.35,657.56Z" style="fill: #ffd800"/>
        <path d="M495.31,657.87c0-6.22-.4-12.47.07-18.65,1.49-19.59,15.05-33,33.68-33.62,19.45-.69,34.8,12.4,36.48,32.45a286.54,286.54,0,0,1,.2,37.3c-1,21.33-15.43,35.3-35.51,35.21s-33.93-14.24-35-35.73c-.26-5.64,0-11.31,0-17Zm20-.31h-.12c0,5.65,0,11.3,0,17,0,10.21,5.12,16.43,15.18,16.49s15.38-6.11,15.43-16.29c.06-11.86.43-23.74-.23-35.57-.52-9.34-7-14.53-15.82-14.14-7.87.34-13.79,5.18-14.35,13.93C515,645.12,515.35,651.35,515.35,657.56Z" style="fill: #ffd800"/>
        <path d="M587.31,657.87c0-6.22-.4-12.47.07-18.65,1.49-19.59,15-33,33.68-33.62,19.45-.69,34.8,12.4,36.48,32.45a286.54,286.54,0,0,1,.2,37.3c-1,21.33-15.43,35.3-35.51,35.21s-33.93-14.24-35-35.73c-.26-5.64,0-11.31,0-17Zm20-.31h-.12c0,5.65,0,11.3,0,17,0,10.21,5.12,16.43,15.18,16.49s15.38-6.11,15.43-16.29c.06-11.86.43-23.74-.23-35.57-.52-9.34-7-14.53-15.82-14.14-7.87.34-13.79,5.18-14.35,13.93C607,645.12,607.35,651.35,607.35,657.56Z" style="fill: #ffd800"/>
        <path d="M704.16,607h0a8.71,8.71,0,0,0-3.88.94,9,9,0,0,0-3,1.38l-19,13.65a9,9,0,0,0,10.55,14.67l6.53-4.7v67.31a8.76,8.76,0,0,0,8.76,8.75h0a8.75,8.75,0,0,0,8.75-8.75v-84.5A8.75,8.75,0,0,0,704.16,607Z" style="fill: #ffd800"/>
        <path d="M954.16,607h0a8.71,8.71,0,0,0-3.88.94,9,9,0,0,0-3,1.38l-19,13.65a9,9,0,0,0,10.55,14.67l6.53-4.7v67.31a8.76,8.76,0,0,0,8.76,8.75h0a8.75,8.75,0,0,0,8.75-8.75v-84.5A8.75,8.75,0,0,0,954.16,607Z" style="fill: #ffd800"/>
      </g>
      <g>
        <path d="M745.31,248.87c0-6.22-.4-12.47.07-18.65,1.49-19.59,15-33,33.68-33.62,19.45-.69,34.8,12.4,36.48,32.45a286.54,286.54,0,0,1,.2,37.3c-1,21.33-15.43,35.3-35.51,35.21s-33.93-14.24-35-35.73c-.26-5.64,0-11.31,0-17Zm20-.31h-.12c0,5.65,0,11.3,0,16.95,0,10.21,5.12,16.43,15.18,16.49s15.38-6.11,15.43-16.29c.06-11.86.43-23.74-.23-35.57-.52-9.34-7-14.53-15.82-14.14-7.87.34-13.79,5.18-14.35,13.93C765,236.12,765.35,242.35,765.35,248.56Z" style="fill: #ffd800"/>
        <path d="M831.31,248.87c0-6.22-.4-12.47.07-18.65,1.49-19.59,15-33,33.68-33.62,19.45-.69,34.8,12.4,36.48,32.45a286.54,286.54,0,0,1,.2,37.3c-1,21.33-15.43,35.3-35.51,35.21s-33.93-14.24-35-35.73c-.26-5.64,0-11.31,0-17Zm20-.31h-.12c0,5.65,0,11.3,0,16.95,0,10.21,5.12,16.43,15.18,16.49s15.38-6.11,15.43-16.29c.06-11.86.43-23.74-.23-35.57-.52-9.34-7-14.53-15.82-14.14-7.87.34-13.79,5.18-14.35,13.93C851,236.12,851.35,242.35,851.35,248.56Z" style="fill: #ffd800"/>
        <path d="M495.31,248.87c0-6.22-.4-12.47.07-18.65,1.49-19.59,15.05-33,33.68-33.62,19.45-.69,34.8,12.4,36.48,32.45a286.54,286.54,0,0,1,.2,37.3c-1,21.33-15.43,35.3-35.51,35.21s-33.93-14.24-35-35.73c-.26-5.64,0-11.31,0-17Zm20-.31h-.12c0,5.65,0,11.3,0,16.95,0,10.21,5.12,16.43,15.18,16.49s15.38-6.11,15.43-16.29c.06-11.86.43-23.74-.23-35.57-.52-9.34-7-14.53-15.82-14.14-7.87.34-13.79,5.18-14.35,13.93C515,236.12,515.35,242.35,515.35,248.56Z" style="fill: #ffd800"/>
        <path d="M587.31,248.87c0-6.22-.4-12.47.07-18.65,1.49-19.59,15-33,33.68-33.62,19.45-.69,34.8,12.4,36.48,32.45a286.54,286.54,0,0,1,.2,37.3c-1,21.33-15.43,35.3-35.51,35.21s-33.93-14.24-35-35.73c-.26-5.64,0-11.31,0-17Zm20-.31h-.12c0,5.65,0,11.3,0,16.95,0,10.21,5.12,16.43,15.18,16.49s15.38-6.11,15.43-16.29c.06-11.86.43-23.74-.23-35.57-.52-9.34-7-14.53-15.82-14.14-7.87.34-13.79,5.18-14.35,13.93C607,236.12,607.35,242.35,607.35,248.56Z" style="fill: #ffd800"/>
        <path d="M704.16,198h0a8.71,8.71,0,0,0-3.88.94,9,9,0,0,0-3,1.38l-19,13.65a9,9,0,0,0,10.55,14.67l6.53-4.7v67.31a8.76,8.76,0,0,0,8.76,8.75h0a8.75,8.75,0,0,0,8.75-8.75v-84.5A8.75,8.75,0,0,0,704.16,198Z" style="fill: #ffd800"/>
        <path d="M954.16,198h0a8.71,8.71,0,0,0-3.88.94,9,9,0,0,0-3,1.38l-19,13.65a9,9,0,0,0,10.55,14.67l6.53-4.7v67.31a8.76,8.76,0,0,0,8.76,8.75h0a8.75,8.75,0,0,0,8.75-8.75v-84.5A8.75,8.75,0,0,0,954.16,198Z" style="fill: #ffd800"/>
      </g>
      <g>
        <path d="M653.31,384.87c0-6.22-.4-12.47.07-18.65,1.49-19.59,15-33,33.68-33.62,19.45-.69,34.8,12.4,36.48,32.45a286.54,286.54,0,0,1,.2,37.3c-1,21.33-15.43,35.3-35.51,35.21s-33.93-14.24-35-35.73c-.26-5.64,0-11.31,0-17Zm20-.31h-.12c0,5.65,0,11.3,0,16.95,0,10.21,5.12,16.43,15.18,16.49s15.38-6.11,15.43-16.29c.06-11.86.43-23.74-.23-35.57-.52-9.34-7-14.53-15.82-14.14-7.87.34-13.79,5.18-14.35,13.93C673,372.12,673.35,378.35,673.35,384.56Z" style="fill: #ffd800"/>
        <path d="M739.31,384.87c0-6.22-.4-12.47.07-18.65,1.49-19.59,15-33,33.68-33.62,19.45-.69,34.8,12.4,36.48,32.45a286.54,286.54,0,0,1,.2,37.3c-1,21.33-15.43,35.3-35.51,35.21s-33.93-14.24-35-35.73c-.26-5.64,0-11.31,0-17Zm20-.31h-.12c0,5.65,0,11.3,0,16.95,0,10.21,5.12,16.43,15.18,16.49s15.38-6.11,15.43-16.29c.06-11.86.43-23.74-.23-35.57-.52-9.34-7-14.53-15.82-14.14-7.87.34-13.79,5.18-14.35,13.93C759,372.12,759.35,378.35,759.35,384.56Z" style="fill: #ffd800"/>
        <path d="M900.31,384.87c0-6.22-.4-12.47.07-18.65,1.49-19.59,15-33,33.68-33.62,19.45-.69,34.8,12.4,36.48,32.45a286.54,286.54,0,0,1,.2,37.3c-1,21.33-15.43,35.3-35.51,35.21s-33.93-14.24-35-35.73c-.26-5.64,0-11.31,0-17Zm20-.31h-.12c0,5.65,0,11.3,0,16.95,0,10.21,5.12,16.43,15.18,16.49s15.38-6.11,15.43-16.29c.06-11.86.43-23.74-.23-35.57-.52-9.34-7-14.53-15.82-14.14-7.87.34-13.79,5.18-14.35,13.93C920,372.12,920.35,378.35,920.35,384.56Z" style="fill: #ffd800"/>
        <path d="M495.31,384.87c0-6.22-.4-12.47.07-18.65,1.49-19.59,15.05-33,33.68-33.62,19.45-.69,34.8,12.4,36.48,32.45a286.54,286.54,0,0,1,.2,37.3c-1,21.33-15.43,35.3-35.51,35.21s-33.93-14.24-35-35.73c-.26-5.64,0-11.31,0-17Zm20-.31h-.12c0,5.65,0,11.3,0,16.95,0,10.21,5.12,16.43,15.18,16.49s15.38-6.11,15.43-16.29c.06-11.86.43-23.74-.23-35.57-.52-9.34-7-14.53-15.82-14.14-7.87.34-13.79,5.18-14.35,13.93C515,372.12,515.35,378.35,515.35,384.56Z" style="fill: #ffd800"/>
        <path d="M612.16,334h0a8.71,8.71,0,0,0-3.88.94,9,9,0,0,0-3,1.38l-19,13.65a9,9,0,1,0,10.55,14.67l6.53-4.7v67.31a8.76,8.76,0,0,0,8.76,8.75h0a8.75,8.75,0,0,0,8.75-8.75v-84.5A8.75,8.75,0,0,0,612.16,334Z" style="fill: #ffd800"/>
        <path d="M862.16,334h0a8.71,8.71,0,0,0-3.88.94,9,9,0,0,0-3,1.38l-19,13.65a9,9,0,0,0,10.55,14.67l6.53-4.7v67.31a8.76,8.76,0,0,0,8.76,8.75h0a8.75,8.75,0,0,0,8.75-8.75v-84.5A8.75,8.75,0,0,0,862.16,334Z" style="fill: #ffd800"/>
      </g>
      <g>
        <path d="M569.31,521.87c0-6.22-.4-12.47.07-18.65,1.49-19.59,15-33,33.68-33.62,19.45-.69,34.8,12.4,36.48,32.45a286.54,286.54,0,0,1,.2,37.3c-1,21.33-15.43,35.3-35.51,35.21s-33.93-14.24-35-35.73c-.26-5.64,0-11.31,0-17Zm20-.31h-.12c0,5.65,0,11.3,0,17,0,10.21,5.12,16.43,15.18,16.49s15.38-6.11,15.43-16.29c.06-11.86.43-23.74-.23-35.57-.52-9.34-7-14.53-15.82-14.14-7.87.34-13.79,5.18-14.35,13.93C589,509.12,589.35,515.35,589.35,521.56Z" style="fill: #ffd800"/>
        <path d="M655.31,521.87c0-6.22-.4-12.47.07-18.65,1.49-19.59,15-33,33.68-33.62,19.45-.69,34.8,12.4,36.48,32.45a286.54,286.54,0,0,1,.2,37.3c-1,21.33-15.43,35.3-35.51,35.21s-33.93-14.24-35-35.73c-.26-5.64,0-11.31,0-17Zm20-.31h-.12c0,5.65,0,11.3,0,17,0,10.21,5.12,16.43,15.18,16.49s15.38-6.11,15.43-16.29c.06-11.86.43-23.74-.23-35.57-.52-9.34-7-14.53-15.82-14.14-7.87.34-13.79,5.18-14.35,13.93C675,509.12,675.35,515.35,675.35,521.56Z" style="fill: #ffd800"/>
        <path d="M816.31,521.87c0-6.22-.4-12.47.07-18.65,1.49-19.59,15-33,33.68-33.62,19.45-.69,34.8,12.4,36.48,32.45a286.54,286.54,0,0,1,.2,37.3c-1,21.33-15.43,35.3-35.51,35.21s-33.93-14.24-35-35.73c-.26-5.64,0-11.31,0-17Zm20-.31h-.12c0,5.65,0,11.3,0,17,0,10.21,5.12,16.43,15.18,16.49s15.38-6.11,15.43-16.29c.06-11.86.43-23.74-.23-35.57-.52-9.34-7-14.53-15.82-14.14-7.87.34-13.79,5.18-14.35,13.93C836,509.12,836.35,515.35,836.35,521.56Z" style="fill: #ffd800"/>
        <path d="M908.31,521.87c0-6.22-.4-12.47.07-18.65,1.49-19.59,15-33,33.68-33.62,19.45-.69,34.8,12.4,36.48,32.45a286.54,286.54,0,0,1,.2,37.3c-1,21.33-15.43,35.3-35.51,35.21s-33.93-14.24-35-35.73c-.26-5.64,0-11.31,0-17Zm20-.31h-.12c0,5.65,0,11.3,0,17,0,10.21,5.12,16.43,15.18,16.49s15.38-6.11,15.43-16.29c.06-11.86.43-23.74-.23-35.57-.52-9.34-7-14.53-15.82-14.14-7.87.34-13.79,5.18-14.35,13.93C928,509.12,928.35,515.35,928.35,521.56Z" style="fill: #ffd800"/>
        <path d="M528.16,471h0a8.71,8.71,0,0,0-3.88.94,9,9,0,0,0-3,1.38l-19,13.65a9,9,0,1,0,10.55,14.67l6.53-4.7v67.31a8.76,8.76,0,0,0,8.76,8.75h0a8.75,8.75,0,0,0,8.75-8.75v-84.5A8.75,8.75,0,0,0,528.16,471Z" style="fill: #ffd800"/>
        <path d="M778.16,471h0a8.71,8.71,0,0,0-3.88.94,9,9,0,0,0-3,1.38l-19,13.65a9,9,0,0,0,10.55,14.67l6.53-4.7v67.31a8.76,8.76,0,0,0,8.76,8.75h0a8.75,8.75,0,0,0,8.75-8.75v-84.5A8.75,8.75,0,0,0,778.16,471Z" style="fill: #ffd800"/>
      </g>
    </g>
  </g>
</svg>
