<svg width="1306" height="458" viewBox="0 0 1306 458" fill="none" xmlns="http://www.w3.org/2000/svg">
<path d="M45.4769 202.307C45.4769 171.312 45.4769 140.318 45.4769 109.323C45.4769 95.3126 51.9463 88.7589 65.7667 88.7321C111.578 88.6874 157.394 88.8215 203.205 88.5846C209.323 88.5488 210.925 89.9257 211.331 96.524C211.669 101.339 211.669 106.171 211.331 110.986C210.765 117.356 209.185 118.585 203.512 118.536C163.266 118.349 123.025 118.563 82.7839 118.304C76.5505 118.268 74.6404 119.918 74.676 126.351C74.9283 177.426 74.9283 228.504 74.676 279.583C74.6493 286.002 76.6663 287.79 82.8997 287.755C122.887 287.518 162.879 287.755 202.867 287.5C209.34 287.455 210.912 288.89 211.326 295.904C211.579 300.467 211.572 305.04 211.304 309.601C210.979 315.695 209.599 317.456 203.619 317.398C175.275 317.13 146.926 317.282 118.577 317.282C102.127 317.282 85.6751 317.282 69.2218 317.282C51.1047 317.282 45.4635 311.698 45.4546 293.825C45.4605 263.307 45.4679 232.801 45.4769 202.307Z" fill="#F6D000"/>
<path d="M211.763 332.642C271.488 332.642 331.217 332.767 390.943 332.477C398.28 332.441 400.319 334.506 400.043 341.815C399.999 343 400.017 344.86 400.008 346.384C399.892 359.487 393.458 366.107 380.524 366.139C356.227 366.206 331.934 366.165 307.637 366.165C219.817 366.165 131.998 366.165 44.1812 366.165C26.2511 366.165 21.4737 354.623 22.1237 335.946C22.1994 333.858 23.7355 332.816 25.7525 332.758C28.0277 332.669 30.3073 332.651 32.5825 332.651L211.763 332.642Z" fill="#F6D000"/>
<path d="M331.952 294.21C331.952 291.429 331.774 288.635 331.983 285.873C332.647 277.115 338.662 271.12 346.979 270.843C355.639 270.535 362.474 276.386 363.222 285.35C363.612 290.9 363.642 296.47 363.311 302.024C362.866 311.559 356.441 317.805 347.5 317.764C338.56 317.724 332.393 311.399 331.917 301.792C331.801 299.27 331.917 296.736 331.917 294.192L331.952 294.21ZM340.857 294.071H340.804C340.804 296.597 340.804 299.123 340.804 301.671C340.804 306.235 343.083 309.016 347.563 309.043C352.042 309.069 354.41 306.311 354.433 301.76C354.459 296.458 354.624 291.148 354.33 285.859C354.099 281.684 351.214 279.364 347.287 279.538C343.782 279.69 341.147 281.854 340.897 285.765C340.719 288.51 340.875 291.295 340.875 294.071H340.857Z" fill="#F6D000"/>
<path d="M370.243 294.21C370.243 291.429 370.065 288.635 370.274 285.873C370.938 277.115 376.953 271.12 385.27 270.843C393.93 270.535 400.765 276.386 401.513 285.35C401.903 290.9 401.933 296.47 401.602 302.024C401.157 311.559 394.732 317.805 385.791 317.764C376.851 317.724 370.684 311.399 370.208 301.792C370.092 299.27 370.208 296.736 370.208 294.192L370.243 294.21ZM379.148 294.071H379.095C379.095 296.597 379.095 299.123 379.095 301.671C379.095 306.235 381.374 309.016 385.854 309.043C390.333 309.069 392.701 306.311 392.724 301.76C392.75 296.458 392.915 291.148 392.621 285.859C392.39 281.684 389.505 279.364 385.578 279.538C382.073 279.69 379.438 281.854 379.188 285.765C379.01 288.51 379.166 291.295 379.166 294.071H379.148Z" fill="#F6D000"/>
<path d="M220.641 294.21C220.641 291.429 220.463 288.635 220.672 285.873C221.335 277.115 227.373 271.12 235.668 270.843C244.328 270.535 251.162 276.386 251.91 285.35C252.301 290.9 252.33 296.47 251.999 302.024C251.554 311.559 245.129 317.805 236.189 317.764C227.248 317.724 221.082 311.399 220.605 301.792C220.489 299.27 220.605 296.736 220.605 294.192L220.641 294.21ZM229.546 294.071H229.492C229.492 296.597 229.492 299.123 229.492 301.671C229.492 306.235 231.772 309.016 236.251 309.043C240.73 309.069 243.099 306.311 243.121 301.76C243.148 296.458 243.313 291.148 243.019 285.859C242.787 281.684 239.902 279.364 235.975 279.538C232.471 279.69 229.835 281.854 229.586 285.765C229.408 288.51 229.563 291.295 229.563 294.071H229.546Z" fill="#F6D000"/>
<path d="M261.603 294.21C261.603 291.429 261.425 288.635 261.634 285.873C262.298 277.115 268.313 271.12 276.63 270.843C285.29 270.535 292.125 276.386 292.873 285.35C293.263 290.9 293.293 296.47 292.962 302.024C292.517 311.559 286.092 317.805 277.151 317.764C268.211 317.724 262.044 311.399 261.568 301.792C261.452 299.27 261.568 296.736 261.568 294.192L261.603 294.21ZM270.508 294.071H270.455C270.455 296.597 270.455 299.123 270.455 301.671C270.455 306.235 272.734 309.016 277.213 309.043C281.693 309.069 284.061 306.311 284.084 301.76C284.11 296.458 284.275 291.148 283.981 285.859C283.75 281.684 280.865 279.364 276.937 279.538C273.433 279.69 270.798 281.854 270.548 285.765C270.37 288.51 270.526 291.295 270.526 294.071H270.508Z" fill="#F6D000"/>
<path d="M313.63 271.469C313.03 271.473 312.438 271.617 311.903 271.889C311.423 272.01 310.97 272.219 310.567 272.506L302.107 278.608C301.241 279.234 300.658 280.179 300.486 281.236C300.314 282.293 300.567 283.376 301.19 284.245C301.813 285.115 302.754 285.701 303.807 285.873C304.86 286.046 305.938 285.792 306.805 285.166L309.712 283.065V313.155C309.713 314.193 310.125 315.188 310.856 315.922C311.587 316.655 312.579 317.067 313.612 317.067C314.646 317.067 315.636 316.655 316.367 315.921C317.098 315.188 317.508 314.193 317.508 313.155V275.38C317.508 274.346 317.1 273.354 316.373 272.621C315.647 271.888 314.66 271.474 313.63 271.469Z" fill="#F6D000"/>
<path d="M424.942 271.469C424.341 271.473 423.75 271.617 423.214 271.889C422.735 272.01 422.282 272.219 421.878 272.506L413.419 278.608C412.553 279.234 411.969 280.179 411.797 281.236C411.625 282.293 411.879 283.376 412.501 284.245C413.124 285.115 414.066 285.701 415.119 285.873C416.172 286.046 417.25 285.792 418.116 285.166L421.023 283.065V313.155C421.025 314.193 421.436 315.188 422.167 315.922C422.899 316.655 423.89 317.067 424.924 317.067C425.957 317.067 426.948 316.655 427.679 315.921C428.409 315.188 428.82 314.193 428.82 313.155V275.38C428.82 274.346 428.412 273.354 427.685 272.621C426.958 271.888 425.972 271.474 424.942 271.469Z" fill="#F6D000"/>
<path d="M331.952 111.37C331.952 108.59 331.774 105.796 331.983 103.033C332.647 94.2754 338.662 88.2806 346.979 88.0035C355.639 87.695 362.474 93.5468 363.222 102.51C363.612 108.06 363.642 113.63 363.311 119.185C362.866 128.72 356.441 134.965 347.5 134.925C338.56 134.885 332.393 128.559 331.917 118.952C331.801 116.431 331.917 113.896 331.917 111.352L331.952 111.37ZM340.857 111.232H340.804C340.804 113.757 340.804 116.283 340.804 118.809C340.804 123.373 343.083 126.154 347.563 126.181C352.042 126.208 354.41 123.449 354.433 118.898C354.459 113.597 354.624 108.286 354.33 102.997C354.099 98.8218 351.214 96.5017 347.287 96.676C343.782 96.828 341.147 98.9917 340.897 102.903C340.719 105.67 340.875 108.456 340.875 111.232H340.857Z" fill="#F6D000"/>
<path d="M370.243 111.37C370.243 108.59 370.065 105.796 370.274 103.033C370.938 94.2754 376.953 88.2806 385.27 88.0035C393.93 87.695 400.765 93.5468 401.513 102.51C401.903 108.06 401.933 113.63 401.602 119.185C401.157 128.72 394.732 134.965 385.791 134.925C376.851 134.885 370.684 128.559 370.208 118.952C370.092 116.431 370.208 113.896 370.208 111.352L370.243 111.37ZM379.148 111.232H379.095C379.095 113.757 379.095 116.283 379.095 118.809C379.095 123.373 381.374 126.154 385.854 126.181C390.333 126.208 392.701 123.449 392.724 118.898C392.75 113.597 392.915 108.286 392.621 102.997C392.39 98.8218 389.505 96.5017 385.578 96.676C382.073 96.828 379.438 98.9917 379.188 102.903C379.01 105.67 379.166 108.456 379.166 111.232H379.148Z" fill="#F6D000"/>
<path d="M220.641 111.37C220.641 108.59 220.463 105.796 220.672 103.033C221.335 94.2754 227.373 88.2806 235.668 88.0035C244.328 87.695 251.162 93.5468 251.91 102.51C252.301 108.06 252.33 113.63 251.999 119.185C251.554 128.72 245.129 134.965 236.189 134.925C227.248 134.885 221.082 128.559 220.605 118.952C220.489 116.431 220.605 113.896 220.605 111.352L220.641 111.37ZM229.546 111.232H229.492C229.492 113.757 229.492 116.283 229.492 118.809C229.492 123.373 231.772 126.154 236.251 126.181C240.73 126.208 243.099 123.449 243.121 118.898C243.148 113.597 243.313 108.286 243.019 102.997C242.787 98.8218 239.902 96.5017 235.975 96.676C232.471 96.828 229.835 98.9917 229.586 102.903C229.408 105.67 229.563 108.456 229.563 111.232H229.546Z" fill="#F6D000"/>
<path d="M261.603 111.37C261.603 108.59 261.425 105.796 261.634 103.033C262.298 94.2754 268.313 88.2806 276.63 88.0035C285.29 87.695 292.125 93.5468 292.873 102.51C293.263 108.06 293.293 113.63 292.962 119.185C292.517 128.72 286.092 134.965 277.151 134.925C268.211 134.885 262.044 128.559 261.568 118.952C261.452 116.431 261.568 113.896 261.568 111.352L261.603 111.37ZM270.508 111.232H270.455C270.455 113.757 270.455 116.283 270.455 118.809C270.455 123.373 272.734 126.154 277.214 126.181C281.693 126.208 284.061 123.449 284.084 118.898C284.11 113.597 284.275 108.286 283.981 102.997C283.75 98.8218 280.865 96.5017 276.937 96.676C273.433 96.828 270.798 98.9917 270.548 102.903C270.37 105.67 270.526 108.456 270.526 111.232H270.508Z" fill="#F6D000"/>
<path d="M313.63 88.6293C313.03 88.6332 312.438 88.7771 311.903 89.0496C311.423 89.1707 310.97 89.3799 310.567 89.6665L302.107 95.7686C301.241 96.394 300.658 97.3393 300.486 98.3964C300.314 99.4536 300.567 100.536 301.19 101.406C301.813 102.275 302.754 102.861 303.807 103.034C304.86 103.206 305.938 102.952 306.805 102.327L309.712 100.226V130.316C309.713 131.354 310.125 132.349 310.856 133.082C311.587 133.815 312.579 134.227 313.612 134.227C314.646 134.227 315.636 133.815 316.367 133.082C317.098 132.348 317.508 131.353 317.508 130.316V92.5409C317.508 91.5066 317.1 90.5144 316.373 89.7813C315.647 89.0483 314.66 88.6341 313.63 88.6293Z" fill="#F6D000"/>
<path d="M424.942 88.6293C424.341 88.6332 423.75 88.7771 423.214 89.0496C422.735 89.1707 422.282 89.3799 421.878 89.6665L413.419 95.7686C412.553 96.394 411.969 97.3393 411.797 98.3964C411.625 99.4536 411.879 100.536 412.501 101.406C413.124 102.275 414.066 102.861 415.119 103.034C416.172 103.206 417.25 102.952 418.116 102.327L421.023 100.226V130.316C421.025 131.354 421.436 132.349 422.167 133.082C422.899 133.815 423.89 134.227 424.924 134.227C425.957 134.227 426.948 133.815 427.679 133.082C428.409 132.348 428.82 131.353 428.82 130.316V92.5409C428.82 91.5066 428.412 90.5144 427.685 89.7813C426.958 89.0483 425.972 88.6341 424.942 88.6293Z" fill="#F6D000"/>
<path d="M290.989 172.168C290.989 169.387 290.811 166.593 291.021 163.83C291.684 155.073 297.699 149.078 306.016 148.801C314.676 148.492 321.511 154.344 322.259 163.307C322.649 168.858 322.679 174.428 322.348 179.982C321.903 189.517 315.478 195.763 306.537 195.722C297.597 195.682 291.43 189.356 290.954 179.75C290.838 177.228 290.954 174.694 290.954 172.15L290.989 172.168ZM299.894 172.029H299.841C299.841 174.555 299.841 177.081 299.841 179.607C299.841 184.171 302.121 186.951 306.6 186.978C311.079 187.005 313.448 184.247 313.47 179.696C313.497 174.394 313.661 169.083 313.367 163.795C313.136 159.619 310.251 157.299 306.324 157.474C302.82 157.626 300.184 159.789 299.934 163.701C299.756 166.468 299.912 169.253 299.912 172.029H299.894Z" fill="#F6D000"/>
<path d="M329.28 172.168C329.28 169.387 329.102 166.593 329.312 163.83C329.975 155.073 335.99 149.078 344.307 148.801C352.967 148.492 359.802 154.344 360.55 163.307C360.94 168.858 360.97 174.428 360.639 179.982C360.194 189.517 353.769 195.763 344.828 195.722C335.888 195.682 329.721 189.356 329.245 179.75C329.129 177.228 329.245 174.694 329.245 172.15L329.28 172.168ZM338.185 172.029H338.132C338.132 174.555 338.132 177.081 338.132 179.607C338.132 184.171 340.412 186.951 344.891 186.978C349.37 187.005 351.739 184.247 351.761 179.696C351.788 174.394 351.952 169.083 351.658 163.795C351.427 159.619 348.542 157.299 344.615 157.474C341.111 157.626 338.475 159.789 338.225 163.701C338.047 166.468 338.203 169.253 338.203 172.029H338.185Z" fill="#F6D000"/>
<path d="M400.965 172.168C400.965 169.387 400.787 166.593 400.996 163.83C401.66 155.073 407.675 149.078 415.992 148.801C424.652 148.492 431.487 154.344 432.235 163.307C432.625 168.858 432.655 174.428 432.324 179.982C431.878 189.517 425.453 195.763 416.513 195.722C407.572 195.682 401.406 189.356 400.929 179.75C400.814 177.228 400.929 174.694 400.929 172.15L400.965 172.168ZM409.87 172.029H409.816C409.816 174.555 409.816 177.081 409.816 179.607C409.816 184.171 412.096 186.951 416.575 186.978C421.054 187.005 423.423 184.247 423.445 179.696C423.472 174.394 423.637 169.083 423.343 163.795C423.111 159.619 420.226 157.299 416.299 157.474C412.795 157.626 410.159 159.789 409.91 163.701C409.732 166.468 409.888 169.253 409.888 172.029H409.87Z" fill="#F6D000"/>
<path d="M220.641 172.168C220.641 169.387 220.463 166.593 220.672 163.83C221.335 155.073 227.373 149.078 235.668 148.801C244.328 148.492 251.162 154.344 251.91 163.307C252.301 168.858 252.33 174.428 251.999 179.982C251.554 189.517 245.129 195.763 236.189 195.722C227.248 195.682 221.082 189.356 220.605 179.75C220.489 177.228 220.605 174.694 220.605 172.15L220.641 172.168ZM229.546 172.029H229.492C229.492 174.555 229.492 177.081 229.492 179.607C229.492 184.171 231.772 186.951 236.251 186.978C240.73 187.005 243.099 184.247 243.121 179.696C243.148 174.394 243.313 169.083 243.019 163.795C242.787 159.619 239.902 157.299 235.975 157.474C232.471 157.626 229.835 159.789 229.586 163.701C229.408 166.468 229.563 169.253 229.563 172.029H229.546Z" fill="#F6D000"/>
<path d="M272.668 149.427C272.067 149.431 271.476 149.575 270.94 149.847C270.461 149.968 270.008 150.177 269.604 150.464L261.145 156.566C260.279 157.191 259.695 158.137 259.523 159.194C259.351 160.251 259.605 161.334 260.228 162.203C260.85 163.073 261.792 163.658 262.845 163.831C263.898 164.004 264.976 163.749 265.842 163.124L268.75 161.023V191.113C268.751 192.151 269.162 193.146 269.893 193.879C270.625 194.613 271.616 195.025 272.65 195.025C273.683 195.025 274.674 194.613 275.405 193.879C276.135 193.146 276.546 192.151 276.546 191.113V153.338C276.546 152.304 276.138 151.312 275.411 150.579C274.684 149.846 273.698 149.431 272.668 149.427Z" fill="#F6D000"/>
<path d="M383.979 149.427C383.378 149.431 382.787 149.575 382.251 149.847C381.772 149.968 381.319 150.177 380.915 150.464L372.456 156.566C371.59 157.191 371.006 158.137 370.834 159.194C370.662 160.251 370.916 161.334 371.539 162.203C372.161 163.073 373.103 163.658 374.156 163.831C375.209 164.004 376.287 163.749 377.153 163.124L380.061 161.023V191.113C380.062 192.151 380.473 193.146 381.205 193.879C381.936 194.613 382.927 195.025 383.961 195.025C384.994 195.025 385.985 194.613 386.716 193.879C387.446 193.146 387.857 192.151 387.857 191.113V153.338C387.857 152.304 387.449 151.312 386.722 150.579C385.995 149.846 385.009 149.431 383.979 149.427Z" fill="#F6D000"/>
<path d="M253.589 233.412C253.589 230.632 253.411 227.838 253.62 225.075C254.284 216.318 260.299 210.323 268.616 210.046C277.276 209.737 284.111 215.589 284.859 224.552C285.249 230.102 285.279 235.672 284.948 241.227C284.502 250.762 278.078 257.007 269.137 256.967C260.196 256.927 254.03 250.601 253.553 240.994C253.438 238.473 253.553 235.938 253.553 233.395L253.589 233.412ZM262.494 233.274H262.441C262.441 235.8 262.441 238.325 262.441 240.873C262.441 245.438 264.72 248.218 269.199 248.245C273.678 248.272 276.047 245.514 276.069 240.963C276.096 235.661 276.261 230.35 275.967 225.062C275.736 220.886 272.85 218.566 268.923 218.74C265.419 218.892 262.783 221.056 262.534 224.968C262.356 227.713 262.512 230.498 262.512 233.274H262.494Z" fill="#F6D000"/>
<path d="M291.88 233.412C291.88 230.632 291.702 227.838 291.911 225.075C292.575 216.318 298.59 210.323 306.907 210.046C315.567 209.737 322.402 215.589 323.15 224.552C323.54 230.102 323.57 235.672 323.239 241.227C322.793 250.762 316.369 257.007 307.428 256.967C298.487 256.927 292.321 250.601 291.844 240.994C291.729 238.473 291.844 235.938 291.844 233.395L291.88 233.412ZM300.785 233.274H300.732C300.732 235.8 300.732 238.325 300.732 240.873C300.732 245.438 303.011 248.218 307.49 248.245C311.97 248.272 314.338 245.514 314.36 240.963C314.387 235.661 314.552 230.35 314.258 225.062C314.027 220.886 311.141 218.566 307.214 218.74C303.71 218.892 301.074 221.056 300.825 224.968C300.647 227.713 300.803 230.498 300.803 233.274H300.785Z" fill="#F6D000"/>
<path d="M363.565 233.412C363.565 230.632 363.387 227.838 363.596 225.075C364.259 216.318 370.274 210.323 378.592 210.046C387.252 209.737 394.086 215.589 394.834 224.552C395.224 230.102 395.254 235.672 394.923 241.227C394.478 250.762 388.053 257.007 379.113 256.967C370.172 256.927 364.005 250.601 363.529 240.994C363.413 238.473 363.529 235.938 363.529 233.395L363.565 233.412ZM372.47 233.274H372.416C372.416 235.8 372.416 238.325 372.416 240.873C372.416 245.438 374.696 248.218 379.175 248.245C383.654 248.272 386.023 245.514 386.045 240.963C386.072 235.661 386.236 230.35 385.943 225.062C385.711 220.886 382.826 218.566 378.899 218.74C375.395 218.892 372.759 221.056 372.51 224.968C372.331 227.713 372.487 230.498 372.487 233.274H372.47Z" fill="#F6D000"/>
<path d="M404.528 233.412C404.528 230.632 404.349 227.838 404.559 225.075C405.222 216.318 411.237 210.323 419.555 210.046C428.215 209.737 435.049 215.589 435.797 224.552C436.187 230.102 436.217 235.672 435.886 241.227C435.441 250.762 429.016 257.007 420.075 256.967C411.135 256.927 404.968 250.601 404.492 240.994C404.376 238.473 404.492 235.938 404.492 233.395L404.528 233.412ZM413.432 233.274H413.379C413.379 235.8 413.379 238.325 413.379 240.873C413.379 245.438 415.659 248.218 420.138 248.245C424.617 248.272 426.986 245.514 427.008 240.963C427.035 235.661 427.199 230.35 426.906 225.062C426.674 220.886 423.789 218.566 419.862 218.74C416.358 218.892 413.722 221.056 413.472 224.968C413.294 227.713 413.45 230.498 413.45 233.274H413.432Z" fill="#F6D000"/>
<path d="M235.267 210.671C234.667 210.675 234.075 210.819 233.54 211.092C233.06 211.213 232.608 211.422 232.204 211.709L223.744 217.811C222.878 218.436 222.295 219.381 222.123 220.438C221.951 221.496 222.204 222.578 222.827 223.448C223.45 224.317 224.392 224.903 225.444 225.076C226.497 225.248 227.576 224.994 228.442 224.369L231.349 222.268V252.358C231.35 253.396 231.762 254.391 232.493 255.124C233.224 255.858 234.216 256.269 235.249 256.269C236.283 256.269 237.274 255.857 238.004 255.124C238.735 254.39 239.145 253.395 239.145 252.358V214.583C239.145 213.549 238.737 212.556 238.011 211.823C237.284 211.09 236.297 210.676 235.267 210.671Z" fill="#F6D000"/>
<path d="M346.578 210.671C345.978 210.675 345.387 210.819 344.851 211.092C344.371 211.213 343.919 211.422 343.515 211.709L335.055 217.811C334.189 218.436 333.606 219.381 333.434 220.438C333.262 221.496 333.515 222.578 334.138 223.448C334.761 224.317 335.703 224.903 336.756 225.076C337.808 225.248 338.887 224.994 339.753 224.369L342.66 222.268V252.358C342.661 253.396 343.073 254.391 343.804 255.124C344.535 255.858 345.527 256.269 346.561 256.269C347.594 256.269 348.585 255.857 349.315 255.124C350.046 254.39 350.456 253.395 350.456 252.358V214.583C350.456 213.549 350.048 212.556 349.322 211.823C348.595 211.09 347.609 210.676 346.578 210.671Z" fill="#F6D000"/>
<rect x="763.869" y="74.3011" width="542.025" height="135.733" fill="#FFD800"/>
<path d="M590.803 170.252L589.924 181.529H600.176V199.544H587.581C586.604 205.207 585.237 209.259 583.48 211.7C581.722 214.141 579.867 215.898 577.914 216.972C576.059 218.046 573.716 218.827 570.885 219.315C568.444 219.804 564.782 220.048 559.9 220.048C556.581 220.048 554.042 219.999 552.284 219.901C552.187 217.363 551.65 214.433 550.673 211.114C549.697 207.892 548.525 205.109 547.158 202.766C552.333 203.156 556.922 203.352 560.925 203.352C562.097 203.352 563.074 203.205 563.855 202.912C564.733 202.522 565.514 201.838 566.198 200.862C566.588 200.471 566.833 200.032 566.93 199.544H528.851L527.68 206.72L507.469 205.402C509.617 194.466 511.521 182.75 513.18 170.252H501.171V151.066H515.67C516.744 142.572 517.428 136.665 517.721 133.345L515.67 135.688C513.717 133.931 510.886 131.832 507.176 129.391C503.465 126.852 500.341 124.899 497.802 123.532C502.88 118.748 507.42 112.548 511.423 104.932C515.426 97.3166 518.502 89.2614 520.65 80.7669L541.447 85.3071C540.666 88.2362 539.445 91.9953 537.785 96.5843H598.858V115.477H529.437C527.973 118.113 526.508 120.603 525.043 122.947H593L592.707 131.295L591.828 151.066H602.08V170.252H590.803ZM492.091 112.402C489.747 110.058 486.281 107.471 481.692 104.639C477.201 101.71 472.758 99.2205 468.365 97.1701L480.228 81.6457C484.817 83.5008 489.406 85.6976 493.995 88.2362C498.681 90.7748 502.294 93.1669 504.832 95.4126L492.091 112.402ZM485.354 151.066C483.108 148.821 479.691 146.331 475.102 143.597C470.61 140.766 466.216 138.373 461.92 136.421L473.637 120.75C478.031 122.41 482.522 124.46 487.111 126.901C491.798 129.342 495.41 131.685 497.949 133.931L485.354 151.066ZM536.321 140.961L535.149 151.066H544.229L545.108 140.961H536.321ZM572.496 151.066L572.935 140.961H563.122L562.39 151.066H572.496ZM464.264 207.306C467.486 200.959 471.001 193.539 474.809 185.044C478.617 176.55 482.034 168.153 485.061 159.854L502.05 171.57C496.68 187.388 490.528 203.156 483.596 218.876L464.264 207.306ZM531.488 181.529H541.154L542.472 170.252H532.952L531.488 181.529ZM559.314 181.529H570.445L571.324 170.252H560.633L559.314 181.529Z" fill="white"/>
<path d="M746.78 136.274C742.191 156.29 735.502 173.328 726.715 187.388C727.496 191 728.326 193.783 729.205 195.736C730.181 197.689 731.109 198.665 731.987 198.665C733.745 198.665 734.77 191.733 735.063 177.868C737.016 180.114 739.359 182.311 742.093 184.459C744.827 186.509 747.365 188.071 749.709 189.145C748.83 196.956 747.61 202.912 746.047 207.013C744.583 211.211 742.532 214.141 739.896 215.8C737.26 217.46 733.745 218.29 729.351 218.29C723.005 218.29 717.732 213.848 713.534 204.963C708.164 210.821 701.964 216.093 694.934 220.78C693.469 218.925 691.175 216.484 688.05 213.457C684.926 210.43 682.338 208.136 680.288 206.574C690.345 201.008 699.132 193.246 706.65 183.287C703.331 167.958 701.085 146.624 699.913 119.285H674.576V132.906H699.474L699.327 139.496C699.132 156.876 698.742 169.129 698.156 176.257C697.668 183.385 696.691 187.974 695.227 190.024C694.055 191.684 692.786 192.953 691.419 193.832C690.149 194.711 688.587 195.345 686.732 195.736C684.389 196.322 680.337 196.615 674.576 196.615C674.283 192.611 673.405 188.266 671.94 183.58C669.108 199.592 663.592 211.944 655.39 220.633C653.828 218.778 651.387 216.435 648.067 213.604C644.748 210.772 642.014 208.77 639.866 207.599C644.552 202.522 648.116 196.175 650.557 188.559C636.888 194.418 624.878 199.348 614.529 203.352L607.938 182.262C612.722 180.895 617.458 179.43 622.145 177.868V134.956H610.721V115.477H622.145V83.1102H641.623V115.477H651.729V134.956H641.623V171.131L651.29 167.762L653.34 177.282C654.512 170.155 655.097 161.27 655.097 150.627V100.099H699.474C699.279 91.5071 699.181 85.063 699.181 80.7669H719.099L718.953 86.9181L732.427 79.4488C735.063 82.2803 737.504 85.3071 739.75 88.5291C742.093 91.7512 743.802 94.5827 744.876 97.0237L739.457 100.099H745.901V119.285H719.392C719.783 130.611 720.564 142.328 721.735 154.435C723.981 148.284 725.983 141.107 727.74 132.906L746.78 136.274ZM726.422 100.099C724.567 96.6819 722.077 93.0205 718.953 89.115V100.099H726.422ZM674.576 150.773C674.576 161.221 673.942 170.838 672.672 179.625C673.746 179.723 675.064 179.772 676.627 179.772C678.091 179.772 679.263 179.137 680.142 177.868C681.118 176.013 681.753 166.688 682.046 149.895H674.576V150.773Z" fill="white"/>
<path d="M466.021 358.596V335.602H532.22V274.383H466.021V251.389H556.092V358.596H466.021Z" fill="white"/>
<path d="M650.84 274.53H674.127C669.245 292.397 662.703 306.946 654.501 318.174C646.3 329.402 637.756 338.092 628.871 344.243C620.084 350.297 611.736 354.593 603.827 357.132C595.918 359.67 589.425 361.135 584.348 361.525C579.369 362.013 576.83 362.209 576.733 362.111V338.239C576.83 338.336 578.832 338.287 582.737 338.092C586.643 337.799 591.622 336.774 597.676 335.017C603.827 333.259 610.271 329.891 617.008 324.911C623.745 319.931 629.945 313.634 635.608 306.018C641.369 298.305 646.446 287.809 650.84 274.53ZM576.733 272.772V249.925H622.427V272.772H576.733Z" fill="white"/>
<path d="M693.704 329.012V246.556H716.112V265.889H778.795V288.883H716.112V326.815C716.307 330.525 717.479 333.503 719.627 335.749C721.872 337.897 726.022 339.117 732.076 339.41C740.668 339.508 748.332 339.313 755.069 338.824C761.806 338.336 769.715 337.36 778.795 335.895V359.328C770.008 360.305 761.953 360.988 754.63 361.379C747.307 361.867 739.203 362.013 730.318 361.818C719.578 361.33 710.79 358.547 703.956 353.47C697.121 348.393 693.704 340.24 693.704 329.012ZM776.452 241.577C776.452 239.234 775.671 237.33 774.109 235.865C772.547 234.303 770.643 233.522 768.397 233.522C766.151 233.522 764.247 234.303 762.685 235.865C761.221 237.33 760.488 239.234 760.488 241.577C760.488 243.823 761.221 245.726 762.685 247.289C764.247 248.753 766.151 249.486 768.397 249.486C770.643 249.486 772.547 248.753 774.109 247.289C775.671 245.726 776.452 243.823 776.452 241.577ZM755.802 228.835C759.219 225.418 763.417 223.709 768.397 223.709C773.376 223.709 777.575 225.467 780.992 228.982C784.507 232.399 786.265 236.597 786.265 241.577C786.265 246.556 784.507 250.755 780.992 254.172C777.575 257.59 773.376 259.298 768.397 259.298C763.417 259.298 759.219 257.59 755.802 254.172C752.384 250.755 750.676 246.556 750.676 241.577C750.676 236.597 752.384 232.35 755.802 228.835Z" fill="white"/>
<path d="M794.263 360.5V340.435H842.74L845.962 288.883H798.51V269.404H867.931L863.244 340.435H878.622V360.5H794.263Z" fill="white"/>
<path d="M892.8 314.805V291.812H960.463V314.805H892.8Z" fill="white"/>
<path d="M1000.38 242.749H1023.38C1022.89 245.58 1022.4 248.167 1021.91 250.511C1021.42 252.756 1021.13 253.977 1021.03 254.172H1071.12V276.58C1069.95 289.957 1067.12 301.575 1062.63 311.437C1058.23 321.298 1052.72 329.549 1046.08 336.188C1039.44 342.73 1032.7 348.149 1025.87 352.445C1019.03 356.643 1012.64 359.865 1006.68 362.111C1000.72 364.357 995.891 365.87 992.181 366.651C988.471 367.53 986.567 367.921 986.469 367.823V344.097C986.567 344.097 988.276 343.706 991.595 342.925C994.915 342.046 999.113 340.533 1004.19 338.385C1009.37 336.237 1014.74 333.259 1020.3 329.451C1025.87 325.546 1030.99 320.517 1035.68 314.366H1008.58V292.544H1044.47C1046.03 286.881 1046.96 281.364 1047.25 275.994H1012.83C1006.78 287.223 1000.92 295.571 995.257 301.038C989.594 306.409 984.956 310.412 981.343 313.048C977.731 315.684 975.827 316.953 975.632 316.856V288.59C975.729 288.59 976.803 287.711 978.854 285.953C981.002 284.098 983.443 281.267 986.176 277.459C989.008 273.651 991.693 268.916 994.232 263.253C996.868 257.492 998.918 250.657 1000.38 242.749Z" fill="white"/>
<path d="M1088.03 314.805V291.812H1155.69V314.805H1088.03Z" fill="white"/>
<path d="M1235.45 262.227C1234.18 265.156 1233.15 267.842 1232.37 270.282L1227.83 281.413H1242.92V300.599H1167.05V281.413H1182.28C1182.09 278.582 1181.55 275.408 1180.67 271.893C1179.89 268.281 1178.96 265.01 1177.89 262.081L1194.59 258.566H1169.83V240.259H1195.32V228.689H1215.97V240.259H1241.16V258.566H1217.73L1235.45 262.227ZM1305.89 244.506C1299.55 263.643 1294.27 278.094 1290.08 287.857C1294.96 293.618 1298.23 299.232 1299.89 304.7C1301.65 310.168 1302.53 315.782 1302.53 321.542C1302.53 327.498 1301.84 332.38 1300.47 336.188C1299.11 339.898 1296.96 342.779 1294.03 344.829C1291.2 346.977 1287.73 348.344 1283.63 348.93C1281.58 349.223 1277.92 349.369 1272.65 349.369C1272.55 346.147 1272.06 342.583 1271.18 338.678C1270.3 334.675 1269.08 331.306 1267.52 328.572C1270.84 328.768 1273.04 328.817 1274.11 328.719C1276.16 328.719 1277.77 328.328 1278.95 327.547C1280.02 326.864 1280.8 325.839 1281.29 324.472C1281.78 323.007 1282.02 321.054 1282.02 318.613C1282.02 314.317 1281.04 309.728 1279.09 304.846C1277.24 299.964 1274.01 295.131 1269.43 290.347C1272.16 282.829 1275.58 271.21 1279.68 255.49H1267.23V366.505H1246.43V235.572H1287L1290.22 234.84L1305.89 244.506ZM1195.32 258.566C1196.59 261.495 1197.71 264.815 1198.69 268.525C1199.76 272.235 1200.49 275.604 1200.88 278.631L1188.73 281.413H1221.68L1210.7 278.777C1212.94 272.138 1214.6 265.401 1215.68 258.566H1195.32ZM1174.67 366.651V308.508H1237.21V366.212H1216.55V360.061H1194.29V366.651H1174.67ZM1216.55 326.815H1194.29V341.754H1216.55V326.815Z" fill="white"/>
<path d="M778.957 190.013V149.187H786.95V164.316L794.354 149.187H802.562L793.817 166.998L803.366 190.013H795.105L788.989 174.187L786.95 178.157V190.013H778.957Z" fill="black"/>
<path d="M805.888 182.717C805.888 179.606 807.211 176.941 809.858 174.724C812.54 172.506 816.171 171.022 820.748 170.271C820.748 166.766 819.372 165.013 816.618 165.013C814.865 165.013 812.594 165.818 809.804 167.427L806.8 162.116C810.877 159.72 814.615 158.522 818.012 158.522C821.41 158.522 824.057 159.648 825.952 161.902C827.848 164.155 828.796 167.249 828.796 171.183V190.013H822.304L821.392 187.009C819.425 189.405 816.904 190.603 813.828 190.603C811.467 190.603 809.554 189.888 808.088 188.458C806.621 186.991 805.888 185.078 805.888 182.717ZM813.613 181.43C813.613 182.36 813.864 183.111 814.364 183.683C814.865 184.219 815.527 184.488 816.349 184.488C818.03 184.488 819.497 183.54 820.748 181.644V175.206C818.495 175.743 816.743 176.566 815.491 177.674C814.239 178.747 813.613 179.999 813.613 181.43Z" fill="black"/>
<path d="M834.697 190.013V183.307H841.779V165.496H835.609V159.166H849.987V183.307H855.513V190.013H834.697ZM841.618 152.889C840.723 152.066 840.276 150.993 840.276 149.67C840.276 148.347 840.723 147.274 841.618 146.451C842.548 145.593 843.71 145.163 845.105 145.163C846.535 145.163 847.698 145.593 848.592 146.451C849.522 147.309 849.987 148.4 849.987 149.724C849.987 151.011 849.522 152.066 848.592 152.889C847.698 153.711 846.535 154.123 845.105 154.123C843.674 154.123 842.512 153.711 841.618 152.889Z" fill="black"/>
<path d="M860.394 200.314L861.736 193.286C863.309 194.073 865.026 194.466 866.886 194.466C869.568 194.466 870.91 192.553 870.91 188.726V165.496H863.077V159.166H879.118V188.672C879.118 192.678 878.063 195.861 875.952 198.222C873.842 200.618 871.017 201.816 867.476 201.816C865.044 201.816 862.683 201.315 860.394 200.314ZM871.017 152.889C870.123 152.066 869.676 150.993 869.676 149.67C869.676 148.347 870.123 147.274 871.017 146.451C871.947 145.593 873.109 145.163 874.504 145.163C875.935 145.163 877.097 145.593 877.991 146.451C878.921 147.274 879.386 148.347 879.386 149.67C879.386 150.993 878.921 152.066 877.991 152.889C877.097 153.711 875.935 154.123 874.504 154.123C873.073 154.123 871.911 153.711 871.017 152.889Z" fill="black"/>
<path d="M891.296 186.258C889.114 183.289 888.023 179.391 888.023 174.563C888.023 169.734 889.114 165.854 891.296 162.921C893.513 159.952 896.428 158.468 900.041 158.468C903.653 158.468 906.55 159.952 908.732 162.921C910.949 165.854 912.058 169.734 912.058 174.563C912.058 179.391 910.949 183.289 908.732 186.258C906.55 189.191 903.653 190.657 900.041 190.657C896.428 190.657 893.513 189.191 891.296 186.258ZM897.251 167.588C896.571 169.305 896.231 171.648 896.231 174.616C896.231 177.549 896.571 179.874 897.251 181.591C897.93 183.272 898.86 184.112 900.041 184.112C901.221 184.112 902.151 183.272 902.83 181.591C903.51 179.91 903.85 177.603 903.85 174.67C903.85 171.701 903.492 169.341 902.777 167.588C902.097 165.836 901.167 164.96 899.987 164.96C898.842 164.96 897.93 165.836 897.251 167.588Z" fill="black"/>
<path d="M947.305 185.078C944.694 181.322 943.388 176.226 943.388 169.788C943.388 163.35 944.712 158.2 947.358 154.337C950.005 150.475 953.546 148.543 957.981 148.543C961.7 148.543 964.937 150.045 967.691 153.05L963.614 159.166C961.861 157.091 960.198 156.054 958.624 156.054C956.621 156.054 954.976 157.342 953.689 159.917C952.401 162.456 951.757 165.746 951.757 169.788C951.757 173.829 952.401 177.066 953.689 179.498C954.976 181.895 956.621 183.093 958.624 183.093C960.627 183.093 962.433 182.002 964.043 179.82L968.12 185.775C965.473 189.03 962.004 190.657 957.712 190.657C953.42 190.657 949.951 188.797 947.305 185.078Z" fill="black"/>
<path d="M973.699 186.258C971.518 183.289 970.427 179.391 970.427 174.563C970.427 169.734 971.518 165.854 973.699 162.921C975.917 159.952 978.832 158.468 982.444 158.468C986.056 158.468 988.953 159.952 991.135 162.921C993.353 165.854 994.461 169.734 994.461 174.563C994.461 179.391 993.353 183.289 991.135 186.258C988.953 189.191 986.056 190.657 982.444 190.657C978.832 190.657 975.917 189.191 973.699 186.258ZM979.654 167.588C978.975 169.305 978.635 171.648 978.635 174.616C978.635 177.549 978.975 179.874 979.654 181.591C980.334 183.272 981.264 184.112 982.444 184.112C983.624 184.112 984.554 183.272 985.234 181.591C985.913 179.91 986.253 177.603 986.253 174.67C986.253 171.701 985.895 169.341 985.18 167.588C984.501 165.836 983.571 164.96 982.39 164.96C981.246 164.96 980.334 165.836 979.654 167.588Z" fill="black"/>
<path d="M997.09 190.013V159.166H1002.45L1003.15 162.009C1003.47 160.864 1004.03 159.97 1004.82 159.327C1005.64 158.683 1006.62 158.361 1007.77 158.361C1008.91 158.361 1009.93 158.719 1010.82 159.434C1011.75 160.113 1012.4 161.043 1012.76 162.224C1013.33 159.684 1014.83 158.415 1017.26 158.415C1019.01 158.415 1020.41 159.166 1021.45 160.668C1022.48 162.17 1023 164.209 1023 166.784V190.013H1016.3V168.179C1016.3 166.247 1015.8 165.282 1014.79 165.282C1014.01 165.282 1013.4 165.8 1012.97 166.837V190.013H1007.07V168.179C1007.07 166.247 1006.64 165.282 1005.78 165.282C1005.03 165.282 1004.37 165.961 1003.8 167.32V190.013H997.09Z" fill="black"/>
<path d="M1026.44 201.279V159.166H1032.93L1033.57 161.633C1035.22 159.523 1037.24 158.468 1039.63 158.468C1042.6 158.468 1044.96 159.881 1046.71 162.706C1048.5 165.496 1049.4 169.323 1049.4 174.187C1049.4 179.015 1048.4 182.985 1046.39 186.097C1044.43 189.209 1041.83 190.764 1038.61 190.764C1036.86 190.764 1035.48 190.246 1034.48 189.209V201.279H1026.44ZM1034.48 182.342C1035.2 183.522 1036.04 184.112 1037 184.112C1038.15 184.112 1039.11 183.093 1039.9 181.054C1040.69 179.015 1041.08 176.601 1041.08 173.812C1041.08 171.022 1040.78 168.858 1040.17 167.32C1039.6 165.782 1038.76 165.013 1037.65 165.013C1036.58 165.013 1035.52 166.05 1034.48 168.125V182.342Z" fill="black"/>
<path d="M1053.1 180.035V159.166H1061.2V179.015C1061.2 182.234 1062 183.844 1063.61 183.844C1065.04 183.844 1066.3 182.771 1067.37 180.625V159.166H1075.58V190.013H1069.03L1068.23 187.331C1066.4 189.548 1063.97 190.657 1060.93 190.657C1055.71 190.657 1053.1 187.116 1053.1 180.035Z" fill="black"/>
<path d="M1080.3 165.496V159.166H1085.82V150.797H1093.98V159.166H1102.99V165.496H1093.98V178.318C1093.98 181.823 1095.43 183.576 1098.32 183.576C1099.47 183.576 1100.81 183.272 1102.35 182.664L1103.74 189.316C1100.88 190.246 1098.4 190.711 1096.29 190.711C1092.92 190.711 1090.33 189.691 1088.51 187.653C1086.72 185.578 1085.82 182.646 1085.82 178.855V165.496H1080.3Z" fill="black"/>
<path d="M1111.84 186.526C1109.3 183.736 1108.03 179.927 1108.03 175.099C1108.03 170.271 1109.21 166.301 1111.58 163.189C1113.97 160.042 1116.9 158.468 1120.37 158.468C1123.84 158.468 1126.54 159.792 1128.47 162.438C1130.41 165.049 1131.37 168.626 1131.37 173.168C1131.37 174.312 1131.28 175.564 1131.1 176.923H1115.81C1116.42 181.895 1118.89 184.38 1123.22 184.38C1125.15 184.38 1126.94 183.915 1128.58 182.985L1130.3 188.94C1128.08 190.085 1125.45 190.657 1122.41 190.657C1117.94 190.657 1114.42 189.28 1111.84 186.526ZM1115.87 171.397H1124.56C1124.56 169.251 1124.24 167.588 1123.59 166.408C1122.95 165.228 1122.02 164.638 1120.8 164.638C1119.62 164.638 1118.59 165.246 1117.69 166.462C1116.8 167.678 1116.19 169.323 1115.87 171.397Z" fill="black"/>
<path d="M1138.24 190.013V159.166H1144.78L1145.64 163.779C1147.79 160.239 1150.76 158.468 1154.55 158.468C1156.16 158.468 1157.82 158.79 1159.54 159.434L1157.98 166.301C1156.59 165.8 1155.3 165.55 1154.12 165.55C1150.58 165.55 1148 167.696 1146.39 171.988V190.013H1138.24Z" fill="black"/>
<path d="M1194.52 185.078C1191.9 181.322 1190.6 176.226 1190.6 169.788C1190.6 163.35 1191.92 158.2 1194.57 154.337C1197.22 150.475 1200.76 148.543 1205.19 148.543C1208.91 148.543 1212.15 150.045 1214.9 153.05L1210.82 159.166C1209.07 157.091 1207.41 156.054 1205.84 156.054C1203.83 156.054 1202.19 157.342 1200.9 159.917C1199.61 162.456 1198.97 165.746 1198.97 169.788C1198.97 173.829 1199.61 177.066 1200.9 179.498C1202.19 181.895 1203.83 183.093 1205.84 183.093C1207.84 183.093 1209.64 182.002 1211.25 179.82L1215.33 185.775C1212.68 189.03 1209.22 190.657 1204.92 190.657C1200.63 190.657 1197.16 188.797 1194.52 185.078Z" fill="black"/>
<path d="M1218.17 153.962V147.578H1232.5V179.498C1232.5 180.786 1232.78 181.787 1233.36 182.503C1233.96 183.182 1234.79 183.522 1235.82 183.522C1236.86 183.522 1237.95 183.2 1239.1 182.556L1240.97 189.262C1238.51 190.192 1236.24 190.657 1234.16 190.657C1231.05 190.657 1228.64 189.674 1226.92 187.706C1225.24 185.739 1224.4 182.968 1224.4 179.391V153.962H1218.17Z" fill="black"/>
<path d="M1245.37 180.035V159.166H1253.47V179.015C1253.47 182.234 1254.28 183.844 1255.89 183.844C1257.32 183.844 1258.57 182.771 1259.64 180.625V159.166H1267.85V190.013H1261.31L1260.5 187.331C1258.68 189.548 1256.25 190.657 1253.21 190.657C1247.98 190.657 1245.37 187.116 1245.37 180.035Z" fill="black"/>
<path d="M1273.65 190.013V147.578H1281.69V160.99C1283.16 159.309 1284.97 158.468 1287.11 158.468C1289.97 158.468 1292.26 159.881 1293.98 162.706C1295.73 165.496 1296.61 169.287 1296.61 174.08C1296.61 178.872 1295.66 182.86 1293.76 186.043C1291.87 189.191 1289.44 190.764 1286.47 190.764C1284.07 190.764 1282.18 189.817 1280.78 187.921L1279.98 190.013H1273.65ZM1281.69 181.805C1282.37 183.343 1283.23 184.112 1284.27 184.112C1285.41 184.112 1286.36 183.093 1287.11 181.054C1287.9 178.98 1288.29 176.566 1288.29 173.812C1288.29 171.022 1287.99 168.858 1287.38 167.32C1286.77 165.782 1285.93 165.013 1284.86 165.013C1283.79 165.013 1282.73 165.925 1281.69 167.749V181.805Z" fill="black"/>
</svg>
