<svg width="1743" height="325" viewBox="0 0 1743 325" fill="none" xmlns="http://www.w3.org/2000/svg">
<path d="M501.646 173.041L500.565 186.92H513.182V209.09H497.681C496.479 216.059 494.797 221.046 492.634 224.05C490.471 227.054 488.188 229.217 485.785 230.539C483.502 231.861 480.618 232.822 477.133 233.423C474.129 234.024 469.623 234.324 463.615 234.324C459.529 234.324 456.405 234.264 454.242 234.144C454.122 231.02 453.461 227.415 452.259 223.329C451.058 219.364 449.616 215.939 447.933 213.055C454.302 213.536 459.95 213.776 464.876 213.776C466.318 213.776 467.52 213.596 468.481 213.236C469.563 212.755 470.524 211.914 471.365 210.712C471.846 210.231 472.146 209.691 472.266 209.09H425.403L423.961 217.922L399.087 216.3C401.731 202.841 404.074 188.422 406.117 173.041H391.337V149.429H409.181C410.503 138.975 411.344 131.705 411.704 127.62L409.181 130.503C406.778 128.34 403.293 125.757 398.727 122.753C394.161 119.629 390.315 117.225 387.191 115.543C393.44 109.655 399.027 102.025 403.954 92.6521C408.881 83.2794 412.666 73.366 415.309 62.9118L440.904 68.4994C439.943 72.1043 438.441 76.7305 436.398 82.3782H511.56V105.63H426.124C424.321 108.874 422.519 111.938 420.717 114.822H504.35L503.989 125.096L502.908 149.429H515.525V173.041H501.646ZM380.162 101.845C377.278 98.9607 373.012 95.7763 367.364 92.2916C361.837 88.6867 356.369 85.6226 350.962 83.0992L365.562 63.9933C371.209 66.2764 376.857 68.98 382.505 72.1043C388.273 75.2285 392.719 78.1725 395.843 80.9362L380.162 101.845ZM371.87 149.429C369.107 146.665 364.901 143.601 359.253 140.237C353.726 136.752 348.318 133.808 343.031 131.405L357.451 112.119C362.858 114.161 368.386 116.685 374.033 119.689C379.801 122.693 384.247 125.577 387.371 128.34L371.87 149.429ZM434.595 136.992L433.153 149.429H444.329L445.41 136.992H434.595ZM479.116 149.429L479.656 136.992H467.58L466.679 149.429H479.116ZM345.915 218.643C349.881 210.832 354.206 201.7 358.893 191.246C363.579 180.792 367.785 170.458 371.51 160.244L392.418 174.663C385.809 194.13 378.239 213.536 369.707 232.882L345.915 218.643ZM428.647 186.92H440.543L442.166 173.041H430.45L428.647 186.92ZM462.894 186.92H476.592L477.674 173.041H464.516L462.894 186.92Z" fill="black"/>
<path d="M693.606 131.224C687.959 155.858 679.728 176.826 668.913 194.13C669.874 198.576 670.896 202 671.977 204.404C673.179 206.807 674.32 208.008 675.402 208.008C677.565 208.008 678.826 199.477 679.187 182.414C681.59 185.178 684.474 187.881 687.839 190.525C691.203 193.048 694.327 194.971 697.211 196.293C696.13 205.906 694.628 213.236 692.705 218.282C690.903 223.449 688.379 227.054 685.135 229.097C681.891 231.14 677.565 232.161 672.157 232.161C664.347 232.161 657.858 226.694 652.691 215.759C646.082 222.969 638.452 229.458 629.8 235.225C627.997 232.942 625.174 229.938 621.328 226.213C617.483 222.488 614.299 219.664 611.776 217.742C624.152 210.892 634.967 201.339 644.219 189.083C640.134 170.217 637.37 143.962 635.928 110.316H604.746V127.079H635.388L635.207 135.19C634.967 156.579 634.486 171.659 633.765 180.431C633.164 189.203 631.963 194.851 630.16 197.374C628.718 199.417 627.156 200.979 625.474 202.06C623.912 203.142 621.989 203.923 619.706 204.404C616.822 205.125 611.836 205.485 604.746 205.485C604.385 200.558 603.304 195.211 601.502 189.443C598.017 209.15 591.228 224.351 581.134 235.045C579.211 232.762 576.207 229.878 572.122 226.393C568.036 222.909 564.672 220.445 562.028 219.003C567.796 212.755 572.182 204.944 575.186 195.572C558.363 202.781 543.583 208.85 530.846 213.776L522.735 187.821C528.623 186.139 534.451 184.336 540.219 182.414V129.602H526.159V105.63H540.219V65.7957H564.191V105.63H576.628V129.602H564.191V174.123L576.087 169.977L578.611 181.693C580.053 172.921 580.773 161.986 580.773 148.888V86.7041H635.388C635.147 76.1297 635.027 68.199 635.027 62.9118H659.54L659.36 70.4821L675.942 61.2896C679.187 64.7743 682.191 68.4994 684.955 72.4648C687.839 76.4301 689.941 79.9148 691.263 82.9189L684.594 86.7041H692.525V110.316H659.901C660.381 124.255 661.343 138.674 662.785 153.575C665.548 146.004 668.012 137.172 670.175 127.079L693.606 131.224ZM668.552 86.7041C666.269 82.4983 663.205 77.9922 659.36 73.1857V86.7041H668.552ZM604.746 149.069C604.746 161.926 603.965 173.762 602.403 184.577C603.725 184.697 605.347 184.757 607.269 184.757C609.072 184.757 610.514 183.976 611.595 182.414C612.797 180.131 613.578 168.655 613.938 147.987H604.746V149.069Z" fill="black"/>
<path d="M708.567 224.591V196.293H790.037V120.95H708.567V92.6521H819.417V224.591H708.567Z" fill="black"/>
<path d="M936.022 121.131H964.681C958.673 143.121 950.622 161.025 940.528 174.844C930.435 188.662 919.92 199.357 908.986 206.927C898.171 214.377 887.897 219.664 878.164 222.788C868.431 225.913 860.44 227.715 854.191 228.196C848.063 228.797 844.939 229.037 844.819 228.917V199.537C844.939 199.657 847.402 199.597 852.209 199.357C857.015 198.996 863.143 197.735 870.594 195.572C878.164 193.409 886.095 189.263 894.386 183.135C902.677 177.006 910.307 169.256 917.277 159.883C924.367 150.39 930.615 137.473 936.022 121.131ZM844.819 118.968V90.8497H901.055V118.968H844.819Z" fill="black"/>
<path d="M988.775 188.182V86.7041H1016.35V110.496H1093.5V138.795H1016.35V185.478C1016.59 190.044 1018.03 193.709 1020.68 196.473C1023.44 199.116 1028.55 200.618 1036 200.979C1046.57 201.099 1056.01 200.859 1064.3 200.258C1072.59 199.657 1082.32 198.456 1093.5 196.653V225.492C1082.68 226.694 1072.77 227.535 1063.76 228.016C1054.74 228.616 1044.77 228.797 1033.84 228.556C1020.62 227.955 1009.8 224.531 1001.39 218.282C992.98 212.034 988.775 202 988.775 188.182ZM1090.61 80.5757C1090.61 77.6918 1089.65 75.3487 1087.73 73.5462C1085.81 71.6236 1083.46 70.6623 1080.7 70.6623C1077.94 70.6623 1075.59 71.6236 1073.67 73.5462C1071.87 75.3487 1070.97 77.6918 1070.97 80.5757C1070.97 83.3395 1071.87 85.6827 1073.67 87.6053C1075.59 89.4077 1077.94 90.3089 1080.7 90.3089C1083.46 90.3089 1085.81 89.4077 1087.73 87.6053C1089.65 85.6827 1090.61 83.3395 1090.61 80.5757ZM1065.2 64.8945C1069.4 60.6888 1074.57 58.5859 1080.7 58.5859C1086.83 58.5859 1091.99 60.7489 1096.2 65.0747C1100.53 69.2804 1102.69 74.4474 1102.69 80.5757C1102.69 86.7041 1100.53 91.8711 1096.2 96.0767C1091.99 100.282 1086.83 102.385 1080.7 102.385C1074.57 102.385 1069.4 100.282 1065.2 96.0767C1060.99 91.8711 1058.89 86.7041 1058.89 80.5757C1058.89 74.4474 1060.99 69.2204 1065.2 64.8945Z" fill="black"/>
<path d="M1112.53 226.934V202.241H1172.19L1176.16 138.795H1117.76V114.822H1203.2L1197.43 202.241H1216.35V226.934H1112.53Z" fill="black"/>
<path d="M1233.8 170.698V142.4H1317.07V170.698H1233.8Z" fill="black"/>
<path d="M1366.2 82.0177H1394.5C1393.9 85.5024 1393.3 88.6867 1392.7 91.5706C1392.1 94.3344 1391.74 95.8364 1391.62 96.0767H1453.26V123.654C1451.82 140.116 1448.33 154.416 1442.81 166.552C1437.4 178.689 1430.61 188.842 1422.44 197.014C1414.27 205.064 1405.98 211.734 1397.57 217.021C1389.15 222.188 1381.28 226.153 1373.95 228.917C1366.62 231.681 1360.68 233.543 1356.11 234.504C1351.54 235.586 1349.2 236.066 1349.08 235.946V206.747C1349.2 206.747 1351.3 206.266 1355.39 205.305C1359.47 204.223 1364.64 202.361 1370.89 199.717C1377.26 197.074 1383.87 193.409 1390.72 188.722C1397.57 183.916 1403.87 177.727 1409.64 170.157H1376.3V143.301H1420.46C1422.38 136.331 1423.52 129.542 1423.88 122.933H1381.52C1374.07 136.752 1366.86 147.026 1359.89 153.755C1352.93 160.364 1347.22 165.291 1342.77 168.535C1338.33 171.779 1335.98 173.341 1335.74 173.221V138.434C1335.86 138.434 1337.18 137.353 1339.71 135.19C1342.35 132.907 1345.36 129.422 1348.72 124.736C1352.2 120.049 1355.51 114.221 1358.63 107.252C1361.88 100.162 1364.4 91.7509 1366.2 82.0177Z" fill="black"/>
<path d="M1474.07 170.698V142.4H1557.34V170.698H1474.07Z" fill="black"/>
<path d="M1655.5 105.99C1653.93 109.595 1652.67 112.9 1651.71 115.904L1646.12 129.602H1664.69V153.214H1571.32V129.602H1590.07C1589.83 126.117 1589.17 122.212 1588.09 117.886C1587.12 113.44 1585.98 109.415 1584.66 105.81L1605.21 101.484H1574.75V78.9535H1606.11V64.7143H1631.52V78.9535H1662.53V101.484H1633.69L1655.5 105.99ZM1742.19 84.1806C1734.38 107.733 1727.9 125.517 1722.73 137.533C1728.74 144.623 1732.76 151.532 1734.8 158.261C1736.97 164.99 1738.05 171.9 1738.05 178.989C1738.05 186.319 1737.21 192.327 1735.53 197.014C1733.84 201.58 1731.2 205.125 1727.59 207.648C1724.11 210.292 1719.84 211.974 1714.8 212.695C1712.27 213.055 1707.77 213.236 1701.28 213.236C1701.16 209.27 1700.56 204.884 1699.48 200.078C1698.4 195.151 1696.89 191.005 1694.97 187.641C1699.06 187.881 1701.76 187.941 1703.08 187.821C1705.6 187.821 1707.59 187.34 1709.03 186.379C1710.35 185.538 1711.31 184.276 1711.91 182.594C1712.51 180.792 1712.81 178.388 1712.81 175.384C1712.81 170.097 1711.61 164.449 1709.21 158.441C1706.93 152.433 1702.96 146.485 1697.31 140.597C1700.68 131.345 1704.88 117.045 1709.93 97.699H1694.61V234.324H1669.02V73.1857H1718.94L1722.91 72.2845L1742.19 84.1806ZM1606.11 101.484C1607.67 105.089 1609.05 109.175 1610.26 113.741C1611.58 118.307 1612.48 122.453 1612.96 126.178L1598 129.602H1638.55L1625.04 126.358C1627.8 118.187 1629.84 109.895 1631.16 101.484H1606.11ZM1580.7 234.504V162.947H1657.66V233.964H1632.25V226.393H1604.85V234.504H1580.7ZM1632.25 185.478H1604.85V203.863H1632.25V185.478Z" fill="black"/>
<path d="M32.9479 143.549C32.9479 121.544 32.9479 99.5386 32.9479 77.5334C32.9479 67.5867 37.5311 62.9338 47.322 62.9148C79.7766 62.883 112.234 62.9783 144.689 62.81C149.023 62.7847 150.158 63.7622 150.445 68.4468C150.685 71.865 150.685 75.2959 150.445 78.7141C150.045 83.2368 148.925 84.1096 144.907 84.0747C116.395 83.9414 87.8863 84.0937 59.3778 83.9097C54.9617 83.8843 53.6085 85.0554 53.6338 89.6226C53.8125 125.885 53.8125 162.148 53.6338 198.412C53.6149 202.969 55.0437 204.239 59.4598 204.214C87.7885 204.045 116.12 204.214 144.449 204.033C149.035 204.001 150.149 205.02 150.442 210C150.621 213.239 150.616 216.486 150.427 219.724C150.196 224.05 149.218 225.301 144.982 225.259C124.902 225.069 104.819 225.177 84.7351 225.177C73.0811 225.177 61.4259 225.177 49.7698 225.177C36.9349 225.177 32.9384 221.213 32.9321 208.524C32.9363 186.857 32.9416 165.199 32.9479 143.549Z" fill="#F6D000"/>
<path d="M150.751 236.082C193.063 236.082 235.378 236.171 277.69 235.965C282.888 235.939 284.333 237.406 284.137 242.595C284.106 243.436 284.118 244.756 284.112 245.838C284.03 255.141 279.472 259.841 270.309 259.864C253.096 259.911 235.886 259.883 218.673 259.883C156.457 259.883 94.2432 259.883 32.0299 259.883C19.3276 259.883 15.943 251.688 16.4035 238.428C16.4572 236.945 17.5454 236.206 18.9743 236.165C20.5861 236.101 22.2011 236.088 23.813 236.088L150.751 236.082Z" fill="#F6D000"/>
<path d="M235.899 208.797C235.899 206.822 235.772 204.839 235.921 202.877C236.391 196.66 240.652 192.404 246.544 192.207C252.679 191.988 257.521 196.143 258.051 202.506C258.328 206.447 258.349 210.401 258.114 214.344C257.799 221.114 253.247 225.548 246.913 225.519C240.58 225.491 236.211 221 235.873 214.179C235.791 212.389 235.873 210.59 235.873 208.784L235.899 208.797ZM242.207 208.698H242.169C242.169 210.491 242.169 212.285 242.169 214.094C242.169 217.334 243.784 219.308 246.958 219.327C250.131 219.346 251.809 217.388 251.825 214.157C251.844 210.393 251.96 206.623 251.752 202.868C251.588 199.904 249.544 198.256 246.762 198.38C244.28 198.488 242.412 200.024 242.236 202.801C242.109 204.75 242.22 206.727 242.22 208.698H242.207Z" fill="#FFD800"/>
<path d="M263.026 208.797C263.026 206.822 262.899 204.839 263.048 202.877C263.518 196.66 267.779 192.404 273.671 192.207C279.806 191.988 284.648 196.143 285.178 202.506C285.455 206.447 285.476 210.401 285.241 214.344C284.926 221.114 280.374 225.548 274.04 225.519C267.707 225.491 263.338 221 263 214.179C262.918 212.389 263 210.59 263 208.784L263.026 208.797ZM269.334 208.698H269.296C269.296 210.491 269.296 212.285 269.296 214.094C269.296 217.334 270.911 219.308 274.085 219.327C277.258 219.346 278.936 217.388 278.952 214.157C278.971 210.393 279.087 206.623 278.879 202.868C278.715 199.904 276.671 198.256 273.889 198.38C271.407 198.488 269.539 200.024 269.363 202.801C269.236 204.75 269.347 206.727 269.347 208.698H269.334Z" fill="#FFD800"/>
<path d="M157.041 208.797C157.041 206.822 156.915 204.839 157.063 202.877C157.533 196.66 161.81 192.404 167.687 192.207C173.822 191.988 178.664 196.143 179.194 202.506C179.47 206.447 179.491 210.401 179.257 214.344C178.941 221.114 174.39 225.548 168.056 225.519C161.722 225.491 157.353 221 157.016 214.179C156.934 212.389 157.016 210.59 157.016 208.784L157.041 208.797ZM163.35 208.698H163.312C163.312 210.491 163.312 212.285 163.312 214.094C163.312 217.334 164.927 219.308 168.1 219.327C171.273 219.346 172.951 217.388 172.967 214.157C172.986 210.393 173.103 206.623 172.895 202.868C172.731 199.904 170.687 198.256 167.905 198.38C165.422 198.488 163.555 200.024 163.378 202.801C163.252 204.75 163.362 206.727 163.362 208.698H163.35Z" fill="#FFD800"/>
<path d="M186.061 208.797C186.061 206.822 185.935 204.839 186.083 202.877C186.553 196.66 190.814 192.404 196.706 192.207C202.842 191.988 207.683 196.143 208.213 202.506C208.49 206.447 208.511 210.401 208.276 214.344C207.961 221.114 203.409 225.548 197.076 225.519C190.742 225.491 186.373 221 186.035 214.179C185.953 212.389 186.035 210.59 186.035 208.784L186.061 208.797ZM192.369 208.698H192.331C192.331 210.491 192.331 212.285 192.331 214.094C192.331 217.334 193.946 219.308 197.12 219.327C200.293 219.346 201.971 217.388 201.987 214.157C202.006 210.393 202.122 206.623 201.914 202.868C201.75 199.904 199.706 198.256 196.924 198.38C194.442 198.488 192.574 200.024 192.398 202.801C192.272 204.75 192.382 206.727 192.382 208.698H192.369Z" fill="#FFD800"/>
<path d="M222.919 192.651C222.493 192.654 222.074 192.756 221.695 192.95C221.355 193.036 221.034 193.184 220.748 193.388L214.755 197.72C214.142 198.164 213.728 198.835 213.607 199.586C213.485 200.336 213.664 201.105 214.106 201.722C214.547 202.34 215.214 202.755 215.96 202.878C216.706 203.001 217.469 202.82 218.083 202.376L220.143 200.884V222.247C220.144 222.984 220.435 223.691 220.953 224.211C221.471 224.732 222.174 225.024 222.906 225.024C223.638 225.024 224.34 224.732 224.858 224.211C225.375 223.69 225.666 222.984 225.666 222.247V195.428C225.666 194.694 225.377 193.99 224.862 193.469C224.347 192.949 223.648 192.655 222.919 192.651Z" fill="#FFD800"/>
<path d="M301.776 192.651C301.351 192.654 300.932 192.756 300.552 192.95C300.213 193.036 299.892 193.184 299.606 193.388L293.613 197.72C292.999 198.164 292.586 198.835 292.464 199.586C292.342 200.336 292.522 201.105 292.963 201.722C293.404 202.34 294.071 202.755 294.817 202.878C295.563 203.001 296.327 202.82 296.941 202.376L299 200.884V222.247C299.001 222.984 299.293 223.691 299.811 224.211C300.329 224.732 301.031 225.024 301.763 225.024C302.495 225.024 303.197 224.732 303.715 224.211C304.233 223.69 304.523 222.984 304.523 222.247V195.428C304.523 194.694 304.234 193.99 303.72 193.469C303.205 192.949 302.506 192.655 301.776 192.651Z" fill="#FFD800"/>
<path d="M235.899 78.987C235.899 77.0129 235.772 75.0293 235.921 73.0678C236.391 66.8503 240.652 62.5942 246.544 62.3974C252.679 62.1784 257.521 66.333 258.051 72.6965C258.328 76.6371 258.349 80.5916 258.114 84.5349C257.799 91.3047 253.247 95.7385 246.913 95.7099C240.58 95.6814 236.211 91.1904 235.873 84.3698C235.791 82.5798 235.873 80.7802 235.873 78.9743L235.899 78.987ZM242.207 78.8886H242.169C242.169 80.6818 242.169 82.4751 242.169 84.2683C242.169 87.5088 243.784 89.4829 246.958 89.5019C250.131 89.521 251.809 87.5627 251.825 84.3317C251.844 80.5676 251.96 76.7971 251.752 73.0424C251.588 70.0781 249.544 68.4309 246.762 68.5546C244.28 68.6626 242.412 70.1987 242.236 72.9758C242.109 74.9404 242.22 76.9177 242.22 78.8886H242.207Z" fill="#FFD800"/>
<path d="M263.026 78.987C263.026 77.0129 262.899 75.0293 263.048 73.0678C263.518 66.8503 267.779 62.5942 273.671 62.3974C279.806 62.1784 284.648 66.333 285.178 72.6965C285.455 76.6371 285.476 80.5916 285.241 84.5349C284.926 91.3047 280.374 95.7385 274.04 95.7099C267.707 95.6814 263.338 91.1904 263 84.3698C262.918 82.5798 263 80.7802 263 78.9743L263.026 78.987ZM269.334 78.8886H269.296C269.296 80.6818 269.296 82.4751 269.296 84.2683C269.296 87.5088 270.911 89.4829 274.085 89.5019C277.258 89.521 278.936 87.5627 278.952 84.3317C278.971 80.5676 279.087 76.7971 278.879 73.0424C278.715 70.0781 276.671 68.4309 273.889 68.5546C271.407 68.6626 269.539 70.1987 269.363 72.9758C269.236 74.9404 269.347 76.9177 269.347 78.8886H269.334Z" fill="#FFD800"/>
<path d="M157.041 78.987C157.041 77.0129 156.915 75.0293 157.063 73.0678C157.533 66.8503 161.81 62.5942 167.687 62.3974C173.822 62.1784 178.664 66.333 179.194 72.6965C179.47 76.6371 179.491 80.5916 179.257 84.5349C178.941 91.3047 174.39 95.7385 168.056 95.7099C161.722 95.6814 157.353 91.1904 157.016 84.3698C156.934 82.5798 157.016 80.7802 157.016 78.9743L157.041 78.987ZM163.35 78.8886H163.312C163.312 80.6818 163.312 82.4751 163.312 84.2683C163.312 87.5088 164.927 89.4829 168.1 89.5019C171.273 89.521 172.951 87.5627 172.967 84.3317C172.986 80.5676 173.103 76.7971 172.895 73.0424C172.731 70.0781 170.687 68.4309 167.905 68.5546C165.422 68.6626 163.555 70.1987 163.378 72.9758C163.252 74.9404 163.362 76.9177 163.362 78.8886H163.35Z" fill="#FFD800"/>
<path d="M186.061 78.987C186.061 77.0129 185.935 75.0293 186.083 73.0678C186.553 66.8503 190.814 62.5942 196.706 62.3974C202.842 62.1784 207.683 66.333 208.213 72.6965C208.49 76.6371 208.511 80.5916 208.276 84.5349C207.961 91.3047 203.409 95.7385 197.076 95.7099C190.742 95.6814 186.373 91.1904 186.035 84.3698C185.953 82.5798 186.035 80.7802 186.035 78.9743L186.061 78.987ZM192.369 78.8886H192.331C192.331 80.6818 192.331 82.4751 192.331 84.2683C192.331 87.5088 193.946 89.4829 197.12 89.5019C200.293 89.521 201.971 87.5627 201.987 84.3317C202.006 80.5676 202.122 76.7971 201.914 73.0424C201.75 70.0781 199.706 68.4309 196.924 68.5546C194.442 68.6626 192.574 70.1987 192.398 72.9758C192.272 74.9404 192.382 76.9177 192.382 78.8886H192.369Z" fill="#FFD800"/>
<path d="M222.919 62.8418C222.493 62.8446 222.074 62.9467 221.695 63.1401C221.355 63.2262 221.034 63.3747 220.748 63.5781L214.755 67.9104C214.142 68.3544 213.728 69.0255 213.607 69.7761C213.485 70.5266 213.664 71.2952 214.106 71.9126C214.547 72.53 215.214 72.9458 215.96 73.0684C216.706 73.191 217.469 73.0104 218.083 72.5664L220.143 71.0747V92.4377C220.144 93.1746 220.435 93.8809 220.953 94.4016C221.471 94.9224 222.174 95.2148 222.906 95.2148C223.638 95.2148 224.34 94.9223 224.858 94.4015C225.375 93.8806 225.666 93.1743 225.666 92.4377V65.6189C225.666 64.8846 225.377 64.1801 224.862 63.6597C224.347 63.1392 223.648 62.8452 222.919 62.8418Z" fill="#FFD800"/>
<path d="M301.776 62.8418C301.351 62.8446 300.932 62.9467 300.552 63.1401C300.213 63.2262 299.892 63.3747 299.606 63.5781L293.613 67.9104C292.999 68.3544 292.586 69.0255 292.464 69.7761C292.342 70.5266 292.522 71.2952 292.963 71.9126C293.404 72.53 294.071 72.9458 294.817 73.0684C295.563 73.191 296.327 73.0104 296.941 72.5664L299 71.0747V92.4377C299.001 93.1746 299.293 93.8809 299.811 94.4016C300.329 94.9224 301.031 95.2148 301.763 95.2148C302.495 95.2148 303.197 94.9223 303.715 94.4015C304.233 93.8806 304.523 93.1743 304.523 92.4377V65.6189C304.523 64.8846 304.234 64.1801 303.72 63.6597C303.205 63.1392 302.506 62.8452 301.776 62.8418Z" fill="#FFD800"/>
<path d="M206.879 122.151C206.879 120.177 206.753 118.193 206.901 116.232C207.371 110.014 211.633 105.758 217.525 105.561C223.66 105.342 228.502 109.497 229.032 115.861C229.308 119.801 229.329 123.756 229.095 127.699C228.779 134.469 224.228 138.903 217.894 138.874C211.56 138.845 207.191 134.354 206.854 127.534C206.772 125.744 206.854 123.944 206.854 122.138L206.879 122.151ZM213.188 122.053H213.15C213.15 123.846 213.15 125.639 213.15 127.432C213.15 130.673 214.765 132.647 217.938 132.666C221.111 132.685 222.789 130.727 222.805 127.496C222.824 123.732 222.941 119.961 222.733 116.207C222.569 113.242 220.525 111.595 217.742 111.719C215.26 111.827 213.393 113.363 213.216 116.14C213.09 118.104 213.2 120.082 213.2 122.053H213.188Z" fill="#FFD800"/>
<path d="M234.006 122.151C234.006 120.177 233.88 118.193 234.028 116.232C234.498 110.014 238.76 105.758 244.652 105.561C250.787 105.342 255.629 109.497 256.159 115.861C256.435 119.801 256.456 123.756 256.222 127.699C255.906 134.469 251.355 138.903 245.021 138.874C238.687 138.845 234.318 134.354 233.981 127.534C233.899 125.744 233.981 123.944 233.981 122.138L234.006 122.151ZM240.315 122.053H240.277C240.277 123.846 240.277 125.639 240.277 127.432C240.277 130.673 241.892 132.647 245.065 132.666C248.238 132.685 249.916 130.727 249.932 127.496C249.951 123.732 250.068 119.961 249.86 116.207C249.695 113.242 247.651 111.595 244.869 111.719C242.387 111.827 240.52 113.363 240.343 116.14C240.217 118.104 240.327 120.082 240.327 122.053H240.315Z" fill="#FFD800"/>
<path d="M284.79 122.151C284.79 120.177 284.664 118.193 284.812 116.232C285.282 110.014 289.544 105.758 295.436 105.561C301.571 105.342 306.413 109.497 306.943 115.861C307.219 119.801 307.24 123.756 307.006 127.699C306.69 134.469 302.139 138.903 295.805 138.874C289.471 138.845 285.102 134.354 284.765 127.534C284.683 125.744 284.765 123.944 284.765 122.138L284.79 122.151ZM291.099 122.053H291.061C291.061 123.846 291.061 125.639 291.061 127.432C291.061 130.673 292.676 132.647 295.849 132.666C299.022 132.685 300.7 130.727 300.716 127.496C300.735 123.732 300.852 119.961 300.644 116.207C300.48 113.242 298.436 111.595 295.654 111.719C293.171 111.827 291.304 113.363 291.127 116.14C291.001 118.104 291.111 120.082 291.111 122.053H291.099Z" fill="#FFD800"/>
<path d="M157.041 122.151C157.041 120.177 156.915 118.193 157.063 116.232C157.533 110.014 161.81 105.758 167.687 105.561C173.822 105.342 178.664 109.497 179.194 115.861C179.47 119.801 179.491 123.756 179.257 127.699C178.941 134.469 174.39 138.903 168.056 138.874C161.722 138.845 157.353 134.354 157.016 127.534C156.934 125.744 157.016 123.944 157.016 122.138L157.041 122.151ZM163.35 122.053H163.312C163.312 123.846 163.312 125.639 163.312 127.432C163.312 130.673 164.927 132.647 168.1 132.666C171.273 132.685 172.951 130.727 172.967 127.496C172.986 123.732 173.103 119.961 172.895 116.207C172.731 113.242 170.687 111.595 167.905 111.719C165.422 111.827 163.555 113.363 163.378 116.14C163.252 118.104 163.362 120.082 163.362 122.053H163.35Z" fill="#FFD800"/>
<path d="M193.899 106.006C193.474 106.009 193.055 106.111 192.675 106.304C192.336 106.39 192.015 106.539 191.729 106.742L185.736 111.074C185.122 111.518 184.709 112.19 184.587 112.94C184.465 113.691 184.645 114.459 185.086 115.077C185.527 115.694 186.194 116.11 186.94 116.232C187.686 116.355 188.45 116.174 189.064 115.73L191.123 114.239V135.602C191.124 136.339 191.416 137.045 191.934 137.566C192.452 138.086 193.154 138.379 193.886 138.379C194.618 138.379 195.321 138.086 195.838 137.566C196.356 137.045 196.646 136.338 196.646 135.602V108.783C196.647 108.049 196.357 107.344 195.843 106.824C195.328 106.303 194.629 106.009 193.899 106.006Z" fill="#FFD800"/>
<path d="M272.757 106.006C272.331 106.009 271.912 106.111 271.533 106.304C271.193 106.39 270.872 106.539 270.586 106.742L264.593 111.074C263.98 111.518 263.566 112.19 263.445 112.94C263.323 113.691 263.502 114.459 263.943 115.077C264.385 115.694 265.052 116.11 265.798 116.232C266.544 116.355 267.307 116.174 267.921 115.73L269.981 114.239V135.602C269.982 136.339 270.273 137.045 270.791 137.566C271.309 138.086 272.012 138.379 272.744 138.379C273.476 138.379 274.178 138.086 274.696 137.566C275.213 137.045 275.504 136.338 275.504 135.602V108.783C275.504 108.049 275.215 107.344 274.7 106.824C274.185 106.303 273.486 106.009 272.757 106.006Z" fill="#FFD800"/>
<path d="M180.383 165.633C180.383 163.658 180.257 161.675 180.405 159.713C180.875 153.496 185.137 149.24 191.029 149.043C197.164 148.824 202.006 152.978 202.536 159.342C202.812 163.283 202.833 167.237 202.599 171.18C202.283 177.95 197.732 182.384 191.398 182.355C185.064 182.327 180.695 177.836 180.358 171.015C180.276 169.225 180.358 167.426 180.358 165.62L180.383 165.633ZM186.692 165.534H186.654C186.654 167.327 186.654 169.121 186.654 170.93C186.654 174.17 188.269 176.144 191.442 176.163C194.615 176.182 196.293 174.224 196.309 170.993C196.328 167.229 196.445 163.458 196.236 159.704C196.072 156.739 194.028 155.092 191.246 155.216C188.764 155.324 186.897 156.86 186.72 159.637C186.594 161.586 186.704 163.563 186.704 165.534H186.692Z" fill="#FFD800"/>
<path d="M207.51 165.633C207.51 163.658 207.384 161.675 207.532 159.713C208.002 153.496 212.263 149.24 218.156 149.043C224.291 148.824 229.133 152.978 229.663 159.342C229.939 163.283 229.96 167.237 229.726 171.18C229.41 177.95 224.859 182.384 218.525 182.355C212.191 182.327 207.822 177.836 207.485 171.015C207.403 169.225 207.485 167.426 207.485 165.62L207.51 165.633ZM213.819 165.534H213.781C213.781 167.327 213.781 169.121 213.781 170.93C213.781 174.17 215.396 176.144 218.569 176.163C221.742 176.182 223.42 174.224 223.436 170.993C223.455 167.229 223.572 163.458 223.363 159.704C223.199 156.739 221.155 155.092 218.373 155.216C215.891 155.324 214.024 156.86 213.847 159.637C213.721 161.586 213.831 163.563 213.831 165.534H213.819Z" fill="#FFD800"/>
<path d="M258.294 165.633C258.294 163.658 258.168 161.675 258.316 159.713C258.786 153.496 263.048 149.24 268.94 149.043C275.075 148.824 279.917 152.978 280.447 159.342C280.723 163.283 280.744 167.237 280.51 171.18C280.194 177.95 275.643 182.384 269.309 182.355C262.975 182.327 258.606 177.836 258.269 171.015C258.187 169.225 258.269 167.426 258.269 165.62L258.294 165.633ZM264.603 165.534H264.565C264.565 167.327 264.565 169.121 264.565 170.93C264.565 174.17 266.18 176.144 269.353 176.163C272.526 176.182 274.204 174.224 274.22 170.993C274.239 167.229 274.356 163.458 274.148 159.704C273.984 156.739 271.94 155.092 269.158 155.216C266.675 155.324 264.808 156.86 264.631 159.637C264.505 161.586 264.615 163.563 264.615 165.534H264.603Z" fill="#FFD800"/>
<path d="M287.314 165.633C287.314 163.658 287.187 161.675 287.336 159.713C287.806 153.496 292.067 149.24 297.959 149.043C304.095 148.824 308.936 152.978 309.466 159.342C309.743 163.283 309.764 167.237 309.529 171.18C309.214 177.95 304.662 182.384 298.328 182.355C291.995 182.327 287.626 177.836 287.288 171.015C287.206 169.225 287.288 167.426 287.288 165.62L287.314 165.633ZM293.622 165.534H293.584C293.584 167.327 293.584 169.121 293.584 170.93C293.584 174.17 295.199 176.144 298.373 176.163C301.546 176.182 303.224 174.224 303.24 170.993C303.259 167.229 303.375 163.458 303.167 159.704C303.003 156.739 300.959 155.092 298.177 155.216C295.695 155.324 293.827 156.86 293.651 159.637C293.524 161.586 293.635 163.563 293.635 165.534H293.622Z" fill="#FFD800"/>
<path d="M167.403 149.487C166.978 149.49 166.559 149.592 166.179 149.786C165.84 149.872 165.519 150.02 165.233 150.224L159.24 154.556C158.626 155 158.213 155.671 158.091 156.422C157.969 157.172 158.149 157.941 158.59 158.558C159.031 159.176 159.698 159.591 160.444 159.714C161.19 159.837 161.954 159.656 162.567 159.212L164.627 157.72V179.083C164.628 179.82 164.92 180.526 165.438 181.047C165.956 181.568 166.658 181.86 167.39 181.86C168.122 181.86 168.824 181.568 169.342 181.047C169.86 180.526 170.15 179.82 170.15 179.083V152.264C170.15 151.53 169.861 150.826 169.346 150.305C168.832 149.785 168.133 149.491 167.403 149.487Z" fill="#FFD800"/>
<path d="M246.26 149.487C245.835 149.49 245.416 149.592 245.037 149.786C244.697 149.872 244.376 150.02 244.09 150.224L238.097 154.556C237.483 155 237.07 155.671 236.948 156.422C236.827 157.172 237.006 157.941 237.447 158.558C237.889 159.176 238.556 159.591 239.302 159.714C240.047 159.837 240.811 159.656 241.425 159.212L243.485 157.72V179.083C243.485 179.82 243.777 180.526 244.295 181.047C244.813 181.568 245.516 181.86 246.248 181.86C246.98 181.86 247.682 181.568 248.199 181.047C248.717 180.526 249.008 179.82 249.008 179.083V152.264C249.008 151.53 248.719 150.826 248.204 150.305C247.689 149.785 246.99 149.491 246.26 149.487Z" fill="#FFD800"/>
</svg>
