<svg xmlns="http://www.w3.org/2000/svg" viewBox="0 0 1024 1024">
  <g id="_01なし" data-name="01なし">
    <rect id="背景" x="-1" width="1024" height="1024" style="fill: #030300" />
    <g>
      <path id="下の棒"
        d="M512.37,747.84c134.14,0,268.29.28,402.43-.37,16.48-.08,21.06,4.54,20.44,20.89-.1,2.65-.06,6.81-.08,10.22-.26,29.31-14.71,44.12-43.76,44.19-54.57.15-109.13.06-163.7.06q-295.86,0-591.71,0c-40.27,0-51-25.82-49.54-67.6.17-4.67,3.62-7,8.15-7.13,5.11-.2,10.23-.24,15.34-.24Z"
        style="fill: #f6d000" />
      <path
        d="M862.78,247.79c0-31.34-14.54-46-45.57-46.06-100.54-.09-201.09.18-301.63-.3q-1.22,0-2.58,0h-4.47q-1.35,0-2.58,0c-100.54.48-201.08.21-301.62.3-31,0-45.53,14.72-45.57,46.06q-.15,104,0,208.06,0,102.31,0,204.64c0,40,12.69,52.44,53.38,52.47q55.42.06,110.85,0c60.37,0,120.75-.29,181.12.19,1.08.06,2.25.09,3.5.08l3.19,0,3.19,0c1.25,0,2.42,0,3.5-.08,60.37-.48,120.75-.19,181.12-.19q55.42,0,110.85,0c40.69,0,53.36-12.49,53.37-52.47q0-102.32,0-204.64Q862.81,351.83,862.78,247.79ZM797.19,628.65c.06,14.35-4.47,18.35-18.47,18.27-87.88-.51-175.77,0-263.66-.54-.89,0-1.82,0-2.8,0h-3c-1,0-1.92,0-2.8,0-87.89.54-175.78,0-263.67.54-14,.08-18.53-3.92-18.46-18.27q.79-171.39,0-342.78c-.07-14.37,4.22-18.07,18.21-18,87.62.56,175.25.13,262.87.49.78,0,1.59,0,2.45,0h5.84c.85,0,1.67,0,2.44,0,87.63-.36,175.25.07,262.87-.49,14-.09,18.29,3.61,18.21,18Q796.36,457.26,797.19,628.65Z"
        style="fill: #f6d000" />
    </g>
  </g>
</svg>