<svg width="1398" height="326" viewBox="0 0 1398 326" fill="none" xmlns="http://www.w3.org/2000/svg">
<path d="M32.4489 144.049C32.4489 122.044 32.4489 100.039 32.4489 78.0334C32.4489 68.0867 37.0321 63.4338 46.823 63.4148C79.2776 63.383 111.735 63.4783 144.19 63.31C148.524 63.2847 149.659 64.2622 149.946 68.9468C150.186 72.365 150.186 75.7959 149.946 79.2141C149.546 83.7368 148.426 84.6096 144.407 84.5747C115.896 84.4414 87.3873 84.5937 58.8787 84.4097C54.4627 84.3843 53.1095 85.5554 53.1348 90.1226C53.3135 126.385 53.3135 162.648 53.1348 198.912C53.1158 203.469 54.5447 204.739 58.9607 204.714C87.2895 204.545 115.621 204.714 143.95 204.533C148.536 204.501 149.65 205.52 149.943 210.5C150.122 213.739 150.117 216.986 149.927 220.224C149.697 224.55 148.719 225.801 144.483 225.759C124.403 225.569 104.32 225.677 84.2361 225.677C72.582 225.677 60.9269 225.677 49.2707 225.677C36.4359 225.677 32.4394 221.713 32.4331 209.024C32.4373 187.357 32.4426 165.699 32.4489 144.049Z" fill="#F6D000"/>
<path d="M150.252 236.582C192.564 236.582 234.879 236.671 277.191 236.465C282.389 236.439 283.834 237.905 283.638 243.095C283.607 243.936 283.619 245.256 283.613 246.338C283.531 255.641 278.973 260.341 269.81 260.363C252.597 260.411 235.387 260.383 218.174 260.383C155.958 260.383 93.7442 260.383 31.5309 260.383C18.8286 260.383 15.444 252.188 15.9045 238.927C15.9581 237.445 17.0464 236.706 18.4753 236.665C20.0871 236.601 21.7021 236.588 23.314 236.588L150.252 236.582Z" fill="#F6D000"/>
<path d="M235.4 209.297C235.4 207.322 235.273 205.339 235.422 203.377C235.892 197.16 240.153 192.904 246.045 192.707C252.18 192.488 257.022 196.643 257.552 203.006C257.829 206.947 257.85 210.901 257.615 214.844C257.3 221.614 252.748 226.048 246.414 226.019C240.081 225.991 235.712 221.5 235.374 214.679C235.292 212.889 235.374 211.09 235.374 209.284L235.4 209.297ZM241.708 209.198H241.67C241.67 210.991 241.67 212.785 241.67 214.594C241.67 217.834 243.285 219.808 246.459 219.827C249.632 219.846 251.31 217.888 251.326 214.657C251.345 210.893 251.461 207.123 251.253 203.368C251.089 200.404 249.045 198.756 246.263 198.88C243.781 198.988 241.913 200.524 241.737 203.301C241.61 205.25 241.721 207.227 241.721 209.198H241.708Z" fill="#FFD800"/>
<path d="M262.527 209.297C262.527 207.322 262.4 205.339 262.549 203.377C263.019 197.16 267.28 192.904 273.172 192.707C279.307 192.488 284.149 196.643 284.679 203.006C284.956 206.947 284.977 210.901 284.742 214.844C284.427 221.614 279.875 226.048 273.541 226.019C267.208 225.991 262.839 221.5 262.501 214.679C262.419 212.889 262.501 211.09 262.501 209.284L262.527 209.297ZM268.835 209.198H268.797C268.797 210.991 268.797 212.785 268.797 214.594C268.797 217.834 270.412 219.808 273.585 219.827C276.759 219.846 278.437 217.888 278.453 214.657C278.472 210.893 278.588 207.123 278.38 203.368C278.216 200.404 276.172 198.756 273.39 198.88C270.908 198.988 269.04 200.524 268.864 203.301C268.737 205.25 268.848 207.227 268.848 209.198H268.835Z" fill="#FFD800"/>
<path d="M156.542 209.297C156.542 207.322 156.416 205.339 156.564 203.377C157.034 197.16 161.311 192.904 167.188 192.707C173.323 192.488 178.165 196.643 178.695 203.006C178.971 206.947 178.992 210.901 178.758 214.844C178.442 221.614 173.891 226.048 167.557 226.019C161.223 225.991 156.854 221.5 156.517 214.679C156.435 212.889 156.517 211.09 156.517 209.284L156.542 209.297ZM162.851 209.198H162.813C162.813 210.991 162.813 212.785 162.813 214.594C162.813 217.834 164.428 219.808 167.601 219.827C170.774 219.846 172.452 217.888 172.468 214.657C172.487 210.893 172.604 207.123 172.396 203.368C172.232 200.404 170.188 198.756 167.406 198.88C164.923 198.988 163.056 200.524 162.879 203.301C162.753 205.25 162.863 207.227 162.863 209.198H162.851Z" fill="#FFD800"/>
<path d="M185.562 209.297C185.562 207.322 185.436 205.339 185.584 203.377C186.054 197.16 190.315 192.904 196.207 192.707C202.343 192.488 207.184 196.643 207.714 203.006C207.991 206.947 208.012 210.901 207.777 214.844C207.462 221.614 202.91 226.048 196.577 226.019C190.243 225.991 185.874 221.5 185.536 214.679C185.454 212.889 185.536 211.09 185.536 209.284L185.562 209.297ZM191.87 209.198H191.832C191.832 210.991 191.832 212.785 191.832 214.594C191.832 217.834 193.447 219.808 196.621 219.827C199.794 219.846 201.472 217.888 201.488 214.657C201.507 210.893 201.623 207.123 201.415 203.368C201.251 200.404 199.207 198.756 196.425 198.88C193.943 198.988 192.075 200.524 191.899 203.301C191.773 205.25 191.883 207.227 191.883 209.198H191.87Z" fill="#FFD800"/>
<path d="M222.42 193.151C221.994 193.154 221.575 193.256 221.196 193.45C220.856 193.536 220.535 193.684 220.249 193.888L214.256 198.22C213.643 198.664 213.229 199.335 213.108 200.086C212.986 200.836 213.165 201.605 213.606 202.222C214.048 202.84 214.715 203.255 215.461 203.378C216.207 203.501 216.97 203.32 217.584 202.876L219.644 201.384V222.747C219.645 223.484 219.936 224.191 220.454 224.711C220.972 225.232 221.675 225.524 222.407 225.524C223.139 225.524 223.841 225.232 224.359 224.711C224.876 224.19 225.167 223.484 225.167 222.747V195.928C225.167 195.194 224.878 194.49 224.363 193.969C223.848 193.449 223.149 193.155 222.42 193.151Z" fill="#FFD800"/>
<path d="M301.277 193.151C300.852 193.154 300.433 193.256 300.053 193.45C299.714 193.536 299.393 193.684 299.107 193.888L293.114 198.22C292.5 198.664 292.087 199.335 291.965 200.086C291.843 200.836 292.023 201.605 292.464 202.222C292.905 202.84 293.572 203.255 294.318 203.378C295.064 203.501 295.828 203.32 296.441 202.876L298.501 201.384V222.747C298.502 223.484 298.794 224.191 299.312 224.711C299.83 225.232 300.532 225.524 301.264 225.524C301.996 225.524 302.698 225.232 303.216 224.711C303.734 224.19 304.024 223.484 304.024 222.747V195.928C304.024 195.194 303.735 194.49 303.22 193.969C302.706 193.449 302.007 193.155 301.277 193.151Z" fill="#FFD800"/>
<path d="M235.4 79.487C235.4 77.5129 235.273 75.5293 235.422 73.5678C235.892 67.3503 240.153 63.0942 246.045 62.8974C252.18 62.6784 257.022 66.833 257.552 73.1965C257.829 77.1371 257.85 81.0916 257.615 85.0349C257.3 91.8047 252.748 96.2385 246.414 96.2099C240.081 96.1814 235.712 91.6904 235.374 84.8698C235.292 83.0798 235.374 81.2802 235.374 79.4743L235.4 79.487ZM241.708 79.3886H241.67C241.67 81.1818 241.67 82.9751 241.67 84.7683C241.67 88.0088 243.285 89.9829 246.459 90.0019C249.632 90.021 251.31 88.0627 251.326 84.8317C251.345 81.0676 251.461 77.2971 251.253 73.5424C251.089 70.5781 249.045 68.9309 246.263 69.0546C243.781 69.1626 241.913 70.6987 241.737 73.4758C241.61 75.4404 241.721 77.4177 241.721 79.3886H241.708Z" fill="#FFD800"/>
<path d="M262.527 79.487C262.527 77.5129 262.4 75.5293 262.549 73.5678C263.019 67.3503 267.28 63.0942 273.172 62.8974C279.307 62.6784 284.149 66.833 284.679 73.1965C284.956 77.1371 284.977 81.0916 284.742 85.0349C284.427 91.8047 279.875 96.2385 273.541 96.2099C267.208 96.1814 262.839 91.6904 262.501 84.8698C262.419 83.0798 262.501 81.2802 262.501 79.4743L262.527 79.487ZM268.835 79.3886H268.797C268.797 81.1818 268.797 82.9751 268.797 84.7683C268.797 88.0088 270.412 89.9829 273.585 90.0019C276.759 90.021 278.437 88.0627 278.453 84.8317C278.472 81.0676 278.588 77.2971 278.38 73.5424C278.216 70.5781 276.172 68.9309 273.39 69.0546C270.908 69.1626 269.04 70.6987 268.864 73.4758C268.737 75.4404 268.848 77.4177 268.848 79.3886H268.835Z" fill="#FFD800"/>
<path d="M156.542 79.487C156.542 77.5129 156.416 75.5293 156.564 73.5678C157.034 67.3503 161.311 63.0942 167.188 62.8974C173.323 62.6784 178.165 66.833 178.695 73.1965C178.971 77.1371 178.992 81.0916 178.758 85.0349C178.442 91.8047 173.891 96.2385 167.557 96.2099C161.223 96.1814 156.854 91.6904 156.517 84.8698C156.435 83.0798 156.517 81.2802 156.517 79.4743L156.542 79.487ZM162.851 79.3886H162.813C162.813 81.1818 162.813 82.9751 162.813 84.7683C162.813 88.0088 164.428 89.9829 167.601 90.0019C170.774 90.021 172.452 88.0627 172.468 84.8317C172.487 81.0676 172.604 77.2971 172.396 73.5424C172.232 70.5781 170.188 68.9309 167.406 69.0546C164.923 69.1626 163.056 70.6987 162.879 73.4758C162.753 75.4404 162.863 77.4177 162.863 79.3886H162.851Z" fill="#FFD800"/>
<path d="M185.562 79.487C185.562 77.5129 185.436 75.5293 185.584 73.5678C186.054 67.3503 190.315 63.0942 196.207 62.8974C202.343 62.6784 207.184 66.833 207.714 73.1965C207.991 77.1371 208.012 81.0916 207.777 85.0349C207.462 91.8047 202.91 96.2385 196.577 96.2099C190.243 96.1814 185.874 91.6904 185.536 84.8698C185.454 83.0798 185.536 81.2802 185.536 79.4743L185.562 79.487ZM191.87 79.3886H191.832C191.832 81.1818 191.832 82.9751 191.832 84.7683C191.832 88.0088 193.447 89.9829 196.621 90.0019C199.794 90.021 201.472 88.0627 201.488 84.8317C201.507 81.0676 201.623 77.2971 201.415 73.5424C201.251 70.5781 199.207 68.9309 196.425 69.0546C193.943 69.1626 192.075 70.6987 191.899 73.4758C191.773 75.4404 191.883 77.4177 191.883 79.3886H191.87Z" fill="#FFD800"/>
<path d="M222.42 63.3418C221.994 63.3446 221.575 63.4467 221.196 63.6401C220.856 63.7262 220.535 63.8747 220.249 64.0781L214.256 68.4104C213.643 68.8544 213.229 69.5255 213.108 70.2761C212.986 71.0266 213.165 71.7952 213.606 72.4126C214.048 73.03 214.715 73.4458 215.461 73.5684C216.207 73.691 216.97 73.5104 217.584 73.0664L219.644 71.5747V92.9377C219.645 93.6746 219.936 94.3809 220.454 94.9016C220.972 95.4224 221.675 95.7148 222.407 95.7148C223.139 95.7148 223.841 95.4223 224.359 94.9015C224.876 94.3806 225.167 93.6743 225.167 92.9377V66.1189C225.167 65.3846 224.878 64.6801 224.363 64.1597C223.848 63.6392 223.149 63.3452 222.42 63.3418Z" fill="#FFD800"/>
<path d="M301.277 63.3418C300.852 63.3446 300.433 63.4467 300.053 63.6401C299.714 63.7262 299.393 63.8747 299.107 64.0781L293.114 68.4104C292.5 68.8544 292.087 69.5255 291.965 70.2761C291.843 71.0266 292.023 71.7952 292.464 72.4126C292.905 73.03 293.572 73.4458 294.318 73.5684C295.064 73.691 295.828 73.5104 296.442 73.0664L298.501 71.5747V92.9377C298.502 93.6746 298.794 94.3809 299.312 94.9016C299.83 95.4224 300.532 95.7148 301.264 95.7148C301.996 95.7148 302.698 95.4223 303.216 94.9015C303.734 94.3806 304.024 93.6743 304.024 92.9377V66.1189C304.024 65.3846 303.735 64.6801 303.221 64.1597C302.706 63.6392 302.007 63.3452 301.277 63.3418Z" fill="#FFD800"/>
<path d="M206.38 122.651C206.38 120.677 206.254 118.693 206.402 116.732C206.872 110.514 211.134 106.258 217.026 106.061C223.161 105.842 228.003 109.997 228.533 116.361C228.809 120.301 228.83 124.256 228.596 128.199C228.28 134.969 223.729 139.403 217.395 139.374C211.061 139.345 206.692 134.854 206.355 128.034C206.273 126.244 206.355 124.444 206.355 122.638L206.38 122.651ZM212.689 122.553H212.651C212.651 124.346 212.651 126.139 212.651 127.932C212.651 131.173 214.266 133.147 217.439 133.166C220.612 133.185 222.29 131.227 222.306 127.996C222.325 124.232 222.442 120.461 222.234 116.707C222.07 113.742 220.026 112.095 217.243 112.219C214.761 112.327 212.894 113.863 212.717 116.64C212.591 118.604 212.701 120.582 212.701 122.553H212.689Z" fill="#FFD800"/>
<path d="M233.507 122.651C233.507 120.677 233.381 118.693 233.529 116.732C233.999 110.514 238.261 106.258 244.153 106.061C250.288 105.842 255.13 109.997 255.66 116.361C255.936 120.301 255.957 124.256 255.723 128.199C255.407 134.969 250.856 139.403 244.522 139.374C238.188 139.345 233.819 134.854 233.482 128.034C233.4 126.244 233.482 124.444 233.482 122.638L233.507 122.651ZM239.816 122.553H239.778C239.778 124.346 239.778 126.139 239.778 127.932C239.778 131.173 241.393 133.147 244.566 133.166C247.739 133.185 249.417 131.227 249.433 127.996C249.452 124.232 249.569 120.461 249.36 116.707C249.196 113.742 247.152 112.095 244.37 112.219C241.888 112.327 240.021 113.863 239.844 116.64C239.718 118.604 239.828 120.582 239.828 122.553H239.816Z" fill="#FFD800"/>
<path d="M284.291 122.651C284.291 120.677 284.165 118.693 284.313 116.732C284.783 110.514 289.045 106.258 294.937 106.061C301.072 105.842 305.914 109.997 306.444 116.361C306.72 120.301 306.741 124.256 306.507 128.199C306.191 134.969 301.64 139.403 295.306 139.374C288.972 139.345 284.603 134.854 284.266 128.034C284.184 126.244 284.266 124.444 284.266 122.638L284.291 122.651ZM290.6 122.553H290.562C290.562 124.346 290.562 126.139 290.562 127.932C290.562 131.173 292.177 133.147 295.35 133.166C298.523 133.185 300.201 131.227 300.217 127.996C300.236 124.232 300.353 120.461 300.145 116.707C299.981 113.742 297.937 112.095 295.155 112.219C292.672 112.327 290.805 113.863 290.628 116.64C290.502 118.604 290.612 120.582 290.612 122.553H290.6Z" fill="#FFD800"/>
<path d="M156.542 122.651C156.542 120.677 156.416 118.693 156.564 116.732C157.034 110.514 161.311 106.258 167.188 106.061C173.323 105.842 178.165 109.997 178.695 116.361C178.971 120.301 178.992 124.256 178.758 128.199C178.442 134.969 173.891 139.403 167.557 139.374C161.223 139.345 156.854 134.854 156.517 128.034C156.435 126.244 156.517 124.444 156.517 122.638L156.542 122.651ZM162.851 122.553H162.813C162.813 124.346 162.813 126.139 162.813 127.932C162.813 131.173 164.428 133.147 167.601 133.166C170.774 133.185 172.452 131.227 172.468 127.996C172.487 124.232 172.604 120.461 172.396 116.707C172.232 113.742 170.188 112.095 167.406 112.219C164.923 112.327 163.056 113.863 162.879 116.64C162.753 118.604 162.863 120.582 162.863 122.553H162.851Z" fill="#FFD800"/>
<path d="M193.4 106.506C192.975 106.509 192.556 106.611 192.176 106.804C191.837 106.89 191.516 107.039 191.23 107.242L185.237 111.574C184.623 112.018 184.21 112.69 184.088 113.44C183.966 114.191 184.146 114.959 184.587 115.577C185.028 116.194 185.695 116.61 186.441 116.732C187.187 116.855 187.951 116.674 188.565 116.23L190.624 114.739V136.102C190.625 136.839 190.917 137.545 191.435 138.066C191.953 138.586 192.655 138.879 193.387 138.879C194.119 138.879 194.821 138.586 195.339 138.066C195.857 137.545 196.147 136.838 196.147 136.102V109.283C196.147 108.549 195.858 107.844 195.344 107.324C194.829 106.803 194.13 106.509 193.4 106.506Z" fill="#FFD800"/>
<path d="M272.257 106.506C271.832 106.509 271.413 106.611 271.034 106.804C270.694 106.89 270.373 107.039 270.087 107.242L264.094 111.574C263.481 112.018 263.067 112.69 262.945 113.44C262.824 114.191 263.003 114.959 263.444 115.577C263.886 116.194 264.553 116.61 265.299 116.732C266.045 116.855 266.808 116.674 267.422 116.23L269.482 114.739V136.102C269.483 136.839 269.774 137.545 270.292 138.066C270.81 138.586 271.513 138.879 272.245 138.879C272.977 138.879 273.679 138.586 274.196 138.066C274.714 137.545 275.005 136.838 275.005 136.102V109.283C275.005 108.549 274.716 107.844 274.201 107.324C273.686 106.803 272.987 106.509 272.257 106.506Z" fill="#FFD800"/>
<path d="M179.884 166.133C179.884 164.158 179.758 162.175 179.906 160.213C180.376 153.996 184.637 149.74 190.53 149.543C196.665 149.324 201.507 153.478 202.037 159.842C202.313 163.783 202.334 167.737 202.1 171.68C201.784 178.45 197.233 182.884 190.899 182.855C184.565 182.827 180.196 178.336 179.859 171.515C179.777 169.725 179.859 167.926 179.859 166.12L179.884 166.133ZM186.193 166.034H186.155C186.155 167.827 186.155 169.621 186.155 171.43C186.155 174.67 187.77 176.644 190.943 176.663C194.116 176.682 195.794 174.724 195.81 171.493C195.829 167.729 195.946 163.958 195.737 160.204C195.573 157.239 193.529 155.592 190.747 155.716C188.265 155.824 186.398 157.36 186.221 160.137C186.095 162.086 186.205 164.063 186.205 166.034H186.193Z" fill="#FFD800"/>
<path d="M207.011 166.133C207.011 164.158 206.885 162.175 207.033 160.213C207.503 153.996 211.764 149.74 217.657 149.543C223.792 149.324 228.634 153.478 229.164 159.842C229.44 163.783 229.461 167.737 229.227 171.68C228.911 178.45 224.36 182.884 218.026 182.855C211.692 182.827 207.323 178.336 206.986 171.515C206.904 169.725 206.986 167.926 206.986 166.12L207.011 166.133ZM213.319 166.034H213.282C213.282 167.827 213.282 169.621 213.282 171.43C213.282 174.67 214.897 176.644 218.07 176.663C221.243 176.682 222.921 174.724 222.937 171.493C222.956 167.729 223.073 163.958 222.864 160.204C222.7 157.239 220.656 155.592 217.874 155.716C215.392 155.824 213.525 157.36 213.348 160.137C213.222 162.086 213.332 164.063 213.332 166.034H213.319Z" fill="#FFD800"/>
<path d="M257.795 166.133C257.795 164.158 257.669 162.175 257.817 160.213C258.287 153.996 262.549 149.74 268.441 149.543C274.576 149.324 279.418 153.478 279.948 159.842C280.224 163.783 280.245 167.737 280.011 171.68C279.695 178.45 275.144 182.884 268.81 182.855C262.476 182.827 258.107 178.336 257.77 171.515C257.688 169.725 257.77 167.926 257.77 166.12L257.795 166.133ZM264.104 166.034H264.066C264.066 167.827 264.066 169.621 264.066 171.43C264.066 174.67 265.681 176.644 268.854 176.663C272.027 176.682 273.705 174.724 273.721 171.493C273.74 167.729 273.857 163.958 273.649 160.204C273.485 157.239 271.441 155.592 268.658 155.716C266.176 155.824 264.309 157.36 264.132 160.137C264.006 162.086 264.116 164.063 264.116 166.034H264.104Z" fill="#FFD800"/>
<path d="M286.815 166.133C286.815 164.158 286.688 162.175 286.837 160.213C287.307 153.996 291.568 149.74 297.46 149.543C303.595 149.324 308.437 153.478 308.967 159.842C309.244 163.783 309.265 167.737 309.03 171.68C308.715 178.45 304.163 182.884 297.829 182.855C291.496 182.827 287.127 178.336 286.789 171.515C286.707 169.725 286.789 167.926 286.789 166.12L286.815 166.133ZM293.123 166.034H293.085C293.085 167.827 293.085 169.621 293.085 171.43C293.085 174.67 294.7 176.644 297.874 176.663C301.047 176.682 302.725 174.724 302.741 171.493C302.76 167.729 302.876 163.958 302.668 160.204C302.504 157.239 300.46 155.592 297.678 155.716C295.196 155.824 293.328 157.36 293.152 160.137C293.025 162.086 293.136 164.063 293.136 166.034H293.123Z" fill="#FFD800"/>
<path d="M166.904 149.987C166.479 149.99 166.06 150.092 165.68 150.286C165.341 150.372 165.02 150.52 164.734 150.724L158.741 155.056C158.127 155.5 157.714 156.171 157.592 156.922C157.47 157.672 157.65 158.441 158.091 159.058C158.532 159.676 159.199 160.091 159.945 160.214C160.691 160.337 161.455 160.156 162.068 159.712L164.128 158.22V179.583C164.129 180.32 164.421 181.026 164.939 181.547C165.457 182.068 166.159 182.36 166.891 182.36C167.623 182.36 168.325 182.068 168.843 181.547C169.361 181.026 169.651 180.32 169.651 179.583V152.764C169.651 152.03 169.362 151.326 168.847 150.805C168.333 150.285 167.634 149.991 166.904 149.987Z" fill="#FFD800"/>
<path d="M245.761 149.987C245.336 149.99 244.917 150.092 244.538 150.286C244.198 150.372 243.877 150.52 243.591 150.724L237.598 155.056C236.984 155.5 236.571 156.171 236.449 156.922C236.328 157.672 236.507 158.441 236.948 159.058C237.39 159.676 238.057 160.091 238.803 160.214C239.548 160.337 240.312 160.156 240.926 159.712L242.986 158.22V179.583C242.986 180.32 243.278 181.026 243.796 181.547C244.314 182.068 245.017 182.36 245.749 182.36C246.481 182.36 247.183 182.068 247.7 181.547C248.218 181.026 248.509 180.32 248.509 179.583V152.764C248.509 152.03 248.22 151.326 247.705 150.805C247.19 150.285 246.491 149.991 245.761 149.987Z" fill="#FFD800"/>
<path d="M342.532 228.549V199.662H425.7V122.75H342.532V93.8619H455.692V228.549H342.532Z" fill="black"/>
<path d="M574.726 122.934H603.982C597.849 145.382 589.63 163.659 579.326 177.766C569.022 191.872 558.289 202.79 547.126 210.517C536.087 218.123 525.599 223.52 515.663 226.709C505.727 229.899 497.569 231.739 491.191 232.229C484.935 232.843 481.745 233.088 481.623 232.965V202.973C481.745 203.096 484.26 203.035 489.167 202.79C494.073 202.421 500.329 201.133 507.935 198.926C515.663 196.718 523.759 192.486 532.223 186.23C540.686 179.974 548.476 172.062 555.59 162.494C562.828 152.803 569.206 139.616 574.726 122.934ZM481.623 120.726V92.0219H539.031V120.726H481.623Z" fill="black"/>
<path d="M628.578 191.382V87.7899H656.73V112.078H735.481V140.966H656.73V188.622C656.975 193.283 658.447 197.024 661.146 199.846C663.967 202.544 669.18 204.077 676.786 204.445C687.58 204.568 697.21 204.323 705.673 203.71C714.137 203.096 724.073 201.87 735.481 200.03V229.469C724.441 230.696 714.321 231.555 705.121 232.045C695.922 232.659 685.74 232.843 674.578 232.597C661.084 231.984 650.044 228.488 641.458 222.109C632.871 215.731 628.578 205.488 628.578 191.382ZM732.537 81.534C732.537 78.59 731.556 76.198 729.593 74.358C727.631 72.3953 725.239 71.414 722.417 71.414C719.596 71.414 717.204 72.3953 715.241 74.358C713.401 76.198 712.481 78.59 712.481 81.534C712.481 84.3553 713.401 86.7473 715.241 88.7099C717.204 90.5499 719.596 91.4699 722.417 91.4699C725.239 91.4699 727.631 90.5499 729.593 88.7099C731.556 86.7473 732.537 84.3553 732.537 81.534ZM706.593 65.526C710.887 61.2327 716.161 59.0861 722.417 59.0861C728.673 59.0861 733.948 61.2941 738.241 65.71C742.657 70.0034 744.865 75.278 744.865 81.534C744.865 87.79 742.657 93.0646 738.241 97.3579C733.948 101.651 728.673 103.798 722.417 103.798C716.161 103.798 710.887 101.651 706.593 97.3579C702.3 93.0646 700.154 87.79 700.154 81.534C700.154 75.278 702.3 69.942 706.593 65.526Z" fill="black"/>
<path d="M754.913 230.941V205.733H815.817L819.865 140.966H760.249V116.494H847.465L841.577 205.733H860.897V230.941H754.913Z" fill="black"/>
<path d="M878.709 173.534V144.646H963.717V173.534H878.709Z" fill="black"/>
<path d="M1013.87 83.006H1042.76C1042.14 86.5633 1041.53 89.8139 1040.92 92.7579C1040.3 95.5793 1039.94 97.1126 1039.81 97.3579H1102.74V125.51C1101.27 142.315 1097.71 156.912 1092.07 169.302C1086.55 181.691 1079.62 192.056 1071.28 200.398C1062.94 208.616 1054.47 215.424 1045.89 220.821C1037.3 226.096 1029.26 230.144 1021.78 232.965C1014.3 235.787 1008.23 237.688 1003.57 238.669C998.904 239.773 996.512 240.264 996.389 240.141V210.333C996.512 210.333 998.659 209.843 1002.83 208.861C1007 207.757 1012.27 205.856 1018.65 203.158C1025.15 200.459 1031.9 196.718 1038.89 191.934C1045.89 187.027 1052.33 180.71 1058.21 172.982H1024.17V145.566H1069.25C1071.22 138.451 1072.38 131.52 1072.75 124.774H1029.51C1021.9 138.88 1014.54 149.368 1007.43 156.238C1000.31 162.984 994.488 168.014 989.949 171.326C985.411 174.638 983.019 176.232 982.773 176.11V140.598C982.896 140.598 984.245 139.494 986.821 137.286C989.52 134.955 992.587 131.398 996.021 126.614C999.579 121.83 1002.95 115.881 1006.14 108.766C1009.45 101.529 1012.03 92.9419 1013.87 83.006Z" fill="black"/>
<path d="M1123.98 173.534V144.646H1208.99V173.534H1123.98Z" fill="black"/>
<path d="M1309.19 107.478C1307.6 111.158 1306.31 114.531 1305.33 117.598L1299.62 131.582H1318.57V155.686H1223.26V131.582H1242.4C1242.15 128.024 1241.48 124.038 1240.37 119.622C1239.39 115.083 1238.23 110.974 1236.88 107.294L1257.85 102.878H1226.76V79.878H1258.77V65.342H1284.72V79.878H1316.37V102.878H1286.93L1309.19 107.478ZM1397.69 85.214C1389.72 109.257 1383.1 127.411 1377.82 139.678C1383.95 146.915 1388.06 153.968 1390.15 160.838C1392.36 167.707 1393.46 174.76 1393.46 181.998C1393.46 189.48 1392.6 195.614 1390.89 200.398C1389.17 205.059 1386.47 208.677 1382.79 211.253C1379.23 213.952 1374.88 215.669 1369.73 216.405C1367.15 216.773 1362.55 216.957 1355.93 216.957C1355.8 212.909 1355.19 208.432 1354.09 203.525C1352.98 198.496 1351.45 194.264 1349.49 190.83C1353.66 191.075 1356.42 191.136 1357.77 191.014C1360.34 191.014 1362.37 190.523 1363.84 189.542C1365.19 188.683 1366.17 187.395 1366.78 185.678C1367.39 183.838 1367.7 181.384 1367.7 178.318C1367.7 172.92 1366.47 167.155 1364.02 161.022C1361.69 154.888 1357.64 148.816 1351.88 142.806C1355.31 133.36 1359.61 118.763 1364.76 99.0139H1349.12V238.485H1322.99V73.99H1373.96L1378.01 73.07L1397.69 85.214ZM1258.77 102.878C1260.37 106.558 1261.78 110.729 1263.01 115.39C1264.36 120.051 1265.28 124.283 1265.77 128.086L1250.49 131.582H1291.89L1278.09 128.27C1280.92 119.928 1283 111.465 1284.35 102.878H1258.77ZM1232.83 238.669V165.622H1311.4V238.117H1285.45V230.389H1257.49V238.669H1232.83ZM1285.45 188.622H1257.49V207.389H1285.45V188.622Z" fill="black"/>
</svg>
