<svg width="512" height="512" viewBox="0 0 512 512" fill="none" xmlns="http://www.w3.org/2000/svg">
<mask id="mask0_19_79" style="mask-type:alpha" maskUnits="userSpaceOnUse" x="0" y="0" width="512" height="512">
<path d="M0 245.76C0 61.44 61.44 0 245.76 0H266.24C450.56 0 512 61.44 512 245.76V266.24C512 450.56 450.56 512 266.24 512H245.76C61.44 512 0 450.56 0 266.24V245.76Z" fill="#C4C4C4"/>
</mask>
<g mask="url(#mask0_19_79)">
<rect width="512" height="512" fill="black"/>
<path d="M70.5649 231.077C70.5649 199.901 70.5649 168.724 70.5649 137.547C70.5649 123.455 77.0985 116.863 91.0561 116.836C137.322 116.791 183.592 116.926 229.858 116.688C236.036 116.652 237.655 118.037 238.064 124.674C238.406 129.516 238.406 134.377 238.064 139.22C237.493 145.628 235.897 146.864 230.168 146.815C189.523 146.626 148.883 146.842 108.242 146.581C101.947 146.545 100.018 148.204 100.054 154.675C100.309 206.05 100.309 257.427 100.054 308.806C100.027 315.263 102.064 317.062 108.359 317.026C148.743 316.787 189.132 317.026 229.516 316.769C236.054 316.724 237.642 318.168 238.06 325.223C238.315 329.812 238.308 334.412 238.037 339.001C237.709 345.13 236.315 346.901 230.276 346.843C201.651 346.573 173.021 346.726 144.391 346.726C127.777 346.726 111.162 346.726 94.5454 346.726C76.2487 346.726 70.5514 341.11 70.5424 323.132C70.5484 292.435 70.5559 261.75 70.5649 231.077Z" fill="#FFD800"/>
<path d="M238.5 362.176C298.818 362.176 359.14 362.302 419.458 362.01C426.869 361.974 428.928 364.052 428.649 371.403C428.604 372.595 428.622 374.466 428.613 375.999C428.496 389.179 421.999 395.838 408.936 395.87C384.398 395.937 359.864 395.897 335.326 395.897C246.635 395.897 157.945 395.897 69.2565 395.897C51.1486 395.897 46.3237 384.286 46.9802 365.499C47.0566 363.399 48.608 362.352 50.6449 362.293C52.9427 362.203 55.245 362.185 57.5428 362.185L238.5 362.176Z" fill="#FFD800"/>
<path d="M359.882 323.519C359.882 320.722 359.703 317.912 359.914 315.133C360.584 306.324 366.659 300.294 375.058 300.015C383.804 299.705 390.707 305.591 391.462 314.607C391.856 320.19 391.886 325.792 391.552 331.379C391.102 340.97 384.614 347.252 375.585 347.212C366.555 347.171 360.328 340.808 359.846 331.145C359.729 328.609 359.846 326.06 359.846 323.501L359.882 323.519ZM368.876 323.38H368.822C368.822 325.92 368.822 328.461 368.822 331.024C368.822 335.615 371.124 338.412 375.648 338.439C380.171 338.466 382.563 335.691 382.586 331.114C382.613 325.781 382.779 320.439 382.482 315.119C382.249 310.919 379.335 308.586 375.369 308.761C371.83 308.914 369.168 311.09 368.916 315.025C368.736 317.786 368.894 320.587 368.894 323.38H368.876Z" fill="#FFD800"/>
<path d="M398.553 323.519C398.553 320.722 398.373 317.912 398.585 315.133C399.255 306.324 405.33 300.294 413.729 300.015C422.475 299.705 429.378 305.591 430.133 314.607C430.527 320.19 430.557 325.792 430.223 331.379C429.773 340.97 423.285 347.252 414.256 347.212C405.226 347.171 398.999 340.808 398.517 331.145C398.4 328.609 398.517 326.06 398.517 323.501L398.553 323.519ZM407.547 323.38H407.493C407.493 325.92 407.493 328.461 407.493 331.024C407.493 335.615 409.795 338.412 414.319 338.439C418.842 338.466 421.234 335.691 421.257 331.114C421.284 325.781 421.45 320.439 421.153 315.119C420.92 310.919 418.006 308.586 414.04 308.761C410.501 308.914 407.839 311.09 407.587 315.025C407.407 317.786 407.565 320.587 407.565 323.38H407.547Z" fill="#FFD800"/>
<path d="M247.467 323.519C247.467 320.722 247.287 317.912 247.498 315.133C248.168 306.324 254.266 300.294 262.643 300.015C271.389 299.705 278.291 305.591 279.047 314.607C279.441 320.19 279.471 325.792 279.136 331.379C278.687 340.97 272.198 347.252 263.169 347.212C254.14 347.171 247.912 340.808 247.431 331.145C247.314 328.609 247.431 326.06 247.431 323.501L247.467 323.519ZM256.46 323.38H256.406C256.406 325.92 256.406 328.461 256.406 331.024C256.406 335.615 258.708 338.412 263.232 338.439C267.756 338.466 270.148 335.691 270.17 331.114C270.197 325.781 270.364 320.439 270.067 315.119C269.833 310.919 266.919 308.586 262.953 308.761C259.414 308.914 256.752 311.09 256.5 315.025C256.321 317.786 256.478 320.587 256.478 323.38H256.46Z" fill="#FFD800"/>
<path d="M288.836 323.519C288.836 320.722 288.656 317.912 288.867 315.133C289.537 306.324 295.612 300.294 304.012 300.015C312.758 299.705 319.66 305.591 320.415 314.607C320.81 320.19 320.84 325.792 320.505 331.379C320.056 340.97 313.567 347.252 304.538 347.212C295.509 347.171 289.281 340.808 288.8 331.145C288.683 328.609 288.8 326.06 288.8 323.501L288.836 323.519ZM297.829 323.38H297.775C297.775 325.92 297.775 328.461 297.775 331.024C297.775 335.615 300.077 338.412 304.601 338.439C309.124 338.466 311.517 335.691 311.539 331.114C311.566 325.781 311.733 320.439 311.436 315.119C311.202 310.919 308.288 308.586 304.322 308.761C300.783 308.914 298.121 311.09 297.869 315.025C297.69 317.786 297.847 320.587 297.847 323.38H297.829Z" fill="#FFD800"/>
<path d="M341.379 300.645C340.772 300.649 340.175 300.793 339.634 301.067C339.15 301.189 338.693 301.4 338.285 301.688L329.742 307.826C328.867 308.455 328.278 309.406 328.104 310.469C327.93 311.532 328.186 312.621 328.815 313.496C329.444 314.371 330.395 314.96 331.458 315.133C332.522 315.307 333.611 315.051 334.485 314.422L337.422 312.309V342.576C337.423 343.62 337.838 344.62 338.577 345.358C339.316 346.096 340.317 346.51 341.361 346.51C342.404 346.51 343.405 346.096 344.143 345.358C344.881 344.62 345.295 343.619 345.295 342.576V304.579C345.295 303.539 344.883 302.541 344.149 301.803C343.415 301.066 342.419 300.649 341.379 300.645Z" fill="#FFD800"/>
<path d="M453.794 300.645C453.188 300.649 452.591 300.793 452.05 301.067C451.566 301.189 451.108 301.4 450.701 301.688L442.157 307.826C441.282 308.455 440.693 309.406 440.52 310.469C440.346 311.532 440.602 312.621 441.231 313.496C441.86 314.371 442.811 314.96 443.874 315.133C444.938 315.307 446.026 315.051 446.901 314.422L449.837 312.309V342.576C449.839 343.62 450.254 344.62 450.993 345.358C451.731 346.096 452.732 346.51 453.776 346.51C454.82 346.51 455.821 346.096 456.559 345.358C457.296 344.62 457.711 343.619 457.711 342.576V304.579C457.711 303.539 457.299 302.541 456.565 301.803C455.831 301.066 454.835 300.649 453.794 300.645Z" fill="#FFD800"/>
<path d="M359.882 139.607C359.882 136.81 359.703 134 359.914 131.221C360.584 122.412 366.659 116.382 375.059 116.103C383.804 115.793 390.707 121.679 391.462 130.695C391.856 136.278 391.886 141.88 391.552 147.467C391.102 157.058 384.614 163.34 375.585 163.3C366.555 163.259 360.328 156.896 359.846 147.233C359.729 144.697 359.846 142.148 359.846 139.589L359.882 139.607ZM368.876 139.468H368.822C368.822 142.008 368.822 144.549 368.822 147.089C368.822 151.68 371.124 154.477 375.648 154.504C380.171 154.531 382.563 151.757 382.586 147.179C382.613 141.846 382.779 136.504 382.482 131.185C382.249 126.985 379.335 124.651 375.369 124.827C371.83 124.979 369.168 127.156 368.916 131.09C368.736 133.874 368.894 136.675 368.894 139.468H368.876Z" fill="#FFD800"/>
<path d="M398.553 139.607C398.553 136.81 398.374 134 398.585 131.221C399.255 122.412 405.33 116.382 413.729 116.103C422.475 115.793 429.378 121.679 430.133 130.695C430.527 136.278 430.557 141.88 430.223 147.467C429.773 157.058 423.285 163.34 414.256 163.3C405.226 163.259 398.999 156.896 398.517 147.233C398.4 144.697 398.517 142.148 398.517 139.589L398.553 139.607ZM407.547 139.468H407.493C407.493 142.008 407.493 144.549 407.493 147.089C407.493 151.68 409.795 154.477 414.319 154.504C418.842 154.531 421.234 151.757 421.257 147.179C421.284 141.846 421.45 136.504 421.153 131.185C420.92 126.985 418.006 124.651 414.04 124.827C410.501 124.979 407.839 127.156 407.587 131.09C407.407 133.874 407.565 136.675 407.565 139.468H407.547Z" fill="#FFD800"/>
<path d="M247.467 139.607C247.467 136.81 247.287 134 247.498 131.221C248.168 122.412 254.266 116.382 262.643 116.103C271.389 115.793 278.291 121.679 279.047 130.695C279.441 136.278 279.471 141.88 279.137 147.467C278.687 157.058 272.198 163.34 263.169 163.3C254.14 163.259 247.912 156.896 247.431 147.233C247.314 144.697 247.431 142.148 247.431 139.589L247.467 139.607ZM256.46 139.468H256.406C256.406 142.008 256.406 144.549 256.406 147.089C256.406 151.68 258.708 154.477 263.232 154.504C267.756 154.531 270.148 151.757 270.17 147.179C270.197 141.846 270.364 136.504 270.067 131.185C269.833 126.985 266.919 124.651 262.953 124.827C259.414 124.979 256.752 127.156 256.5 131.09C256.321 133.874 256.478 136.675 256.478 139.468H256.46Z" fill="#FFD800"/>
<path d="M288.836 139.607C288.836 136.81 288.656 134 288.867 131.221C289.537 122.412 295.612 116.382 304.012 116.103C312.758 115.793 319.66 121.679 320.416 130.695C320.81 136.278 320.84 141.88 320.505 147.467C320.056 157.058 313.567 163.34 304.538 163.3C295.509 163.259 289.281 156.896 288.8 147.233C288.683 144.697 288.8 142.148 288.8 139.589L288.836 139.607ZM297.829 139.468H297.775C297.775 142.008 297.775 144.549 297.775 147.089C297.775 151.68 300.077 154.477 304.601 154.504C309.124 154.531 311.517 151.757 311.539 147.179C311.566 141.846 311.733 136.504 311.436 131.185C311.202 126.985 308.288 124.651 304.322 124.827C300.783 124.979 298.121 127.156 297.869 131.09C297.69 133.874 297.847 136.675 297.847 139.468H297.829Z" fill="#FFD800"/>
<path d="M341.379 116.733C340.772 116.737 340.175 116.881 339.634 117.155C339.15 117.277 338.693 117.488 338.285 117.776L329.742 123.914C328.867 124.543 328.278 125.494 328.104 126.557C327.93 127.62 328.186 128.709 328.815 129.584C329.444 130.459 330.395 131.048 331.459 131.221C332.522 131.395 333.611 131.139 334.485 130.51L337.422 128.397V158.664C337.423 159.708 337.838 160.708 338.577 161.446C339.316 162.184 340.317 162.598 341.361 162.598C342.404 162.598 343.405 162.184 344.143 161.446C344.881 160.708 345.295 159.707 345.295 158.664V120.667C345.295 119.627 344.883 118.629 344.149 117.891C343.415 117.154 342.419 116.737 341.379 116.733Z" fill="#FFD800"/>
<path d="M453.794 116.733C453.188 116.737 452.591 116.881 452.05 117.155C451.566 117.277 451.108 117.488 450.701 117.776L442.157 123.914C441.282 124.543 440.693 125.494 440.52 126.557C440.346 127.62 440.602 128.709 441.231 129.584C441.86 130.459 442.811 131.048 443.874 131.221C444.938 131.395 446.026 131.139 446.901 130.51L449.837 128.397V158.664C449.839 159.708 450.254 160.708 450.993 161.446C451.731 162.184 452.733 162.598 453.776 162.598C454.82 162.598 455.821 162.184 456.559 161.446C457.296 160.708 457.711 159.707 457.711 158.664V120.667C457.711 119.627 457.299 118.629 456.565 117.891C455.831 117.154 454.835 116.737 453.794 116.733Z" fill="#FFD800"/>
<path d="M318.513 200.761C318.513 197.964 318.334 195.154 318.545 192.375C319.215 183.566 325.29 177.536 333.69 177.257C342.435 176.947 349.338 182.833 350.093 191.849C350.487 197.432 350.517 203.034 350.183 208.621C349.733 218.212 343.245 224.494 334.216 224.454C325.186 224.413 318.959 218.051 318.477 208.387C318.361 205.851 318.477 203.302 318.477 200.743L318.513 200.761ZM327.507 200.622H327.453C327.453 203.162 327.453 205.703 327.453 208.243C327.453 212.834 329.755 215.631 334.279 215.658C338.802 215.685 341.194 212.911 341.217 208.333C341.244 203 341.41 197.658 341.113 192.339C340.88 188.139 337.966 185.805 334 185.981C330.461 186.134 327.799 188.31 327.547 192.244C327.367 195.028 327.525 197.829 327.525 200.622H327.507Z" fill="#FFD800"/>
<path d="M357.184 200.761C357.184 197.964 357.005 195.154 357.216 192.375C357.886 183.566 363.961 177.536 372.361 177.257C381.106 176.947 388.009 182.833 388.764 191.849C389.158 197.432 389.188 203.034 388.854 208.621C388.404 218.212 381.916 224.494 372.887 224.454C363.857 224.413 357.63 218.051 357.148 208.387C357.031 205.851 357.148 203.302 357.148 200.743L357.184 200.761ZM366.178 200.622H366.124C366.124 203.162 366.124 205.703 366.124 208.243C366.124 212.834 368.426 215.631 372.95 215.658C377.473 215.685 379.865 212.911 379.888 208.333C379.915 203 380.081 197.658 379.784 192.339C379.551 188.139 376.637 185.805 372.671 185.981C369.132 186.134 366.47 188.31 366.218 192.244C366.038 195.028 366.196 197.829 366.196 200.622H366.178Z" fill="#FFD800"/>
<path d="M429.58 200.761C429.58 197.964 429.4 195.154 429.612 192.375C430.282 183.566 436.356 177.536 444.756 177.257C453.502 176.947 460.404 182.833 461.16 191.849C461.554 197.432 461.584 203.034 461.25 208.621C460.8 218.212 454.312 224.494 445.282 224.454C436.253 224.413 430.025 218.051 429.544 208.387C429.427 205.851 429.544 203.302 429.544 200.743L429.58 200.761ZM438.573 200.622H438.519C438.519 203.162 438.519 205.703 438.519 208.243C438.519 212.834 440.822 215.631 445.345 215.658C449.869 215.685 452.261 212.911 452.284 208.333C452.311 203 452.477 197.658 452.18 192.339C451.946 188.139 449.032 185.805 445.066 185.981C441.528 186.134 438.866 188.31 438.614 192.244C438.434 195.028 438.591 197.829 438.591 200.622H438.573Z" fill="#FFD800"/>
<path d="M247.467 200.761C247.467 197.964 247.287 195.154 247.498 192.375C248.168 183.566 254.266 177.536 262.643 177.257C271.389 176.947 278.291 182.833 279.047 191.849C279.441 197.432 279.471 203.034 279.136 208.621C278.687 218.212 272.198 224.494 263.169 224.454C254.14 224.413 247.912 218.051 247.431 208.387C247.314 205.851 247.431 203.302 247.431 200.743L247.467 200.761ZM256.46 200.622H256.406C256.406 203.162 256.406 205.703 256.406 208.243C256.406 212.834 258.708 215.631 263.232 215.658C267.756 215.685 270.148 212.911 270.17 208.333C270.197 203 270.364 197.658 270.067 192.339C269.833 188.139 266.919 185.805 262.953 185.981C259.414 186.134 256.752 188.31 256.5 192.244C256.321 195.028 256.478 197.829 256.478 200.622H256.46Z" fill="#FFD800"/>
<path d="M300.01 177.887C299.403 177.891 298.806 178.035 298.265 178.309C297.781 178.431 297.324 178.642 296.916 178.93L288.373 185.068C287.498 185.697 286.909 186.648 286.735 187.711C286.561 188.774 286.817 189.863 287.446 190.738C288.075 191.613 289.026 192.202 290.09 192.376C291.153 192.549 292.242 192.293 293.116 191.664L296.053 189.551V219.818C296.054 220.862 296.469 221.862 297.208 222.6C297.947 223.338 298.948 223.752 299.992 223.752C301.035 223.752 302.036 223.338 302.774 222.6C303.512 221.862 303.926 220.861 303.926 219.818V181.821C303.926 180.781 303.514 179.783 302.78 179.045C302.046 178.308 301.05 177.891 300.01 177.887Z" fill="#FFD800"/>
<path d="M412.425 177.887C411.819 177.891 411.222 178.035 410.681 178.309C410.197 178.431 409.739 178.642 409.332 178.93L400.788 185.068C399.913 185.697 399.324 186.648 399.151 187.711C398.977 188.774 399.233 189.863 399.862 190.738C400.491 191.613 401.442 192.202 402.505 192.376C403.569 192.549 404.657 192.293 405.532 191.664L408.468 189.551V219.818C408.47 220.862 408.885 221.862 409.624 222.6C410.362 223.338 411.364 223.752 412.407 223.752C413.451 223.752 414.452 223.338 415.19 222.6C415.927 221.862 416.342 220.861 416.342 219.818V181.821C416.342 180.781 415.93 179.783 415.196 179.045C414.462 178.308 413.466 177.891 412.425 177.887Z" fill="#FFD800"/>
<path d="M280.742 262.365C280.742 259.568 280.562 256.758 280.773 253.979C281.443 245.17 287.518 239.14 295.918 238.861C304.664 238.551 311.566 244.437 312.322 253.452C312.716 259.035 312.746 264.638 312.412 270.225C311.962 279.816 305.473 286.098 296.444 286.058C287.415 286.017 281.187 279.654 280.706 269.991C280.589 267.455 280.706 264.905 280.706 262.347L280.742 262.365ZM289.735 262.225H289.681C289.681 264.766 289.681 267.307 289.681 269.87C289.681 274.461 291.983 277.258 296.507 277.285C301.031 277.312 303.423 274.537 303.445 269.96C303.472 264.627 303.639 259.285 303.342 253.965C303.108 249.765 300.194 247.432 296.228 247.607C292.689 247.76 290.027 249.936 289.776 253.871C289.596 256.632 289.753 259.433 289.753 262.225H289.735Z" fill="#FFD800"/>
<path d="M319.413 262.365C319.413 259.568 319.233 256.758 319.444 253.979C320.114 245.17 326.189 239.14 334.589 238.861C343.335 238.551 350.237 244.437 350.993 253.452C351.387 259.035 351.417 264.638 351.082 270.225C350.633 279.816 344.144 286.098 335.115 286.058C326.086 286.017 319.858 279.654 319.377 269.991C319.26 267.455 319.377 264.905 319.377 262.347L319.413 262.365ZM328.406 262.225H328.352C328.352 264.766 328.352 267.307 328.352 269.87C328.352 274.461 330.654 277.258 335.178 277.285C339.702 277.312 342.094 274.537 342.116 269.96C342.143 264.627 342.31 259.285 342.013 253.965C341.779 249.765 338.865 247.432 334.899 247.607C331.36 247.76 328.698 249.936 328.446 253.871C328.267 256.632 328.424 259.433 328.424 262.225H328.406Z" fill="#FFD800"/>
<path d="M391.808 262.365C391.808 259.568 391.629 256.758 391.84 253.979C392.51 245.17 398.585 239.14 406.985 238.861C415.73 238.551 422.633 244.437 423.388 253.452C423.782 259.035 423.812 264.638 423.478 270.225C423.028 279.816 416.54 286.098 407.511 286.058C398.481 286.017 392.254 279.654 391.772 269.991C391.656 267.455 391.772 264.905 391.772 262.347L391.808 262.365ZM400.802 262.225H400.748C400.748 264.766 400.748 267.307 400.748 269.87C400.748 274.461 403.05 277.258 407.574 277.285C412.097 277.312 414.489 274.537 414.512 269.96C414.539 264.627 414.705 259.285 414.408 253.965C414.175 249.765 411.261 247.432 407.295 247.607C403.756 247.76 401.094 249.936 400.842 253.871C400.662 256.632 400.82 259.433 400.82 262.225H400.802Z" fill="#FFD800"/>
<path d="M433.177 262.365C433.177 259.568 432.998 256.758 433.209 253.979C433.879 245.17 439.954 239.14 448.353 238.861C457.099 238.551 464.002 244.437 464.757 253.452C465.151 259.035 465.181 264.638 464.847 270.225C464.397 279.816 457.909 286.098 448.88 286.058C439.85 286.017 433.623 279.654 433.141 269.991C433.024 267.455 433.141 264.905 433.141 262.347L433.177 262.365ZM442.171 262.225H442.117C442.117 264.766 442.117 267.307 442.117 269.87C442.117 274.461 444.419 277.258 448.943 277.285C453.466 277.312 455.858 274.537 455.881 269.96C455.908 264.627 456.074 259.285 455.777 253.965C455.544 249.765 452.63 247.432 448.664 247.607C445.125 247.76 442.463 249.936 442.211 253.871C442.031 256.632 442.189 259.433 442.189 262.225H442.171Z" fill="#FFD800"/>
<path d="M262.238 239.49C261.632 239.494 261.034 239.639 260.493 239.913C260.009 240.035 259.552 240.245 259.144 240.534L250.601 246.672C249.726 247.301 249.137 248.251 248.963 249.315C248.79 250.378 249.046 251.467 249.675 252.342C250.304 253.217 251.254 253.806 252.318 253.979C253.381 254.153 254.47 253.897 255.345 253.268L258.281 251.155V281.421C258.282 282.465 258.698 283.466 259.436 284.204C260.175 284.942 261.176 285.356 262.22 285.356C263.264 285.356 264.264 284.942 265.002 284.204C265.74 283.466 266.155 282.465 266.155 281.421V243.425C266.155 242.385 265.743 241.387 265.009 240.649C264.275 239.912 263.279 239.495 262.238 239.49Z" fill="#FFD800"/>
<path d="M374.654 239.49C374.047 239.494 373.45 239.639 372.909 239.913C372.425 240.035 371.968 240.245 371.56 240.534L363.017 246.672C362.142 247.301 361.553 248.251 361.379 249.315C361.205 250.378 361.461 251.467 362.09 252.342C362.719 253.217 363.67 253.806 364.734 253.979C365.797 254.153 366.886 253.897 367.76 253.268L370.697 251.155V281.421C370.698 282.465 371.113 283.466 371.852 284.204C372.591 284.942 373.592 285.356 374.636 285.356C375.679 285.356 376.68 284.942 377.418 284.204C378.156 283.466 378.57 282.465 378.57 281.421V243.425C378.57 242.385 378.158 241.387 377.424 240.649C376.69 239.912 375.694 239.495 374.654 239.49Z" fill="#FFD800"/>
</g>
</svg>
